<svg xmlns="http://www.w3.org/2000/svg" width="1200" height="460" viewBox="0 0 1200 460">
<rect width="100%" height="100%" fill="#101419"/>
<text x="24" y="30" fill="#f1f5f9" font-family="sans-serif" font-size="20">External-aircraft controller family $C3925A</text>
<text x="24" y="54" fill="#aab7c4" font-family="sans-serif" font-size="13">run031 frame 7500, six C2FF48 polygons reached during the traced $C3925A controller path; external-view entity candidate · 29 traced segment(s) · workspace coordinates, not asserted source mesh</text>
<rect x="30" y="100" width="360" height="360" fill="#151c24" stroke="#506070"/>
<line x1="75" y1="280.0" x2="345" y2="280.0" stroke="#536579"/>
<line x1="210.0" y1="145" x2="210.0" y2="415" stroke="#536579"/>
<text x="38" y="122" fill="#f1f5f9" font-family="sans-serif" font-size="16">X-Y</text>
<text x="38" y="450" fill="#aab7c4" font-family="sans-serif" font-size="11">range ±4438</text>
<line x1="218.76" y1="235.77" x2="219.55" y2="235.74" stroke="#65d5ff" stroke-width="2"/>
<circle cx="218.76" cy="235.77" r="2.5" fill="#ffffff"/>
<circle cx="219.55" cy="235.74" r="2.5" fill="#ffffff"/>
<text x="223.16" y="231.76" fill="#65d5ff" font-family="monospace" font-size="11">0</text>
<line x1="219.55" y1="235.74" x2="219.10" y2="236.41" stroke="#ffcc66" stroke-width="2"/>
<circle cx="219.55" cy="235.74" r="2.5" fill="#ffffff"/>
<circle cx="219.10" cy="236.41" r="2.5" fill="#ffffff"/>
<text x="223.32" y="232.07" fill="#ffcc66" font-family="monospace" font-size="11">1</text>
<line x1="219.10" y1="236.41" x2="218.76" y2="235.77" stroke="#65d5ff" stroke-width="2"/>
<circle cx="219.10" cy="236.41" r="2.5" fill="#ffffff"/>
<circle cx="218.76" cy="235.77" r="2.5" fill="#ffffff"/>
<text x="222.93" y="232.09" fill="#65d5ff" font-family="monospace" font-size="11">2</text>
<line x1="217.48" y1="231.82" x2="218.76" y2="235.77" stroke="#ffcc66" stroke-width="2"/>
<circle cx="217.48" cy="231.82" r="2.5" fill="#ffffff"/>
<circle cx="218.76" cy="235.77" r="2.5" fill="#ffffff"/>
<text x="222.12" y="229.79" fill="#ffcc66" font-family="monospace" font-size="11">3</text>
<line x1="218.76" y1="235.77" x2="219.10" y2="236.41" stroke="#65d5ff" stroke-width="2"/>
<circle cx="218.76" cy="235.77" r="2.5" fill="#ffffff"/>
<circle cx="219.10" cy="236.41" r="2.5" fill="#ffffff"/>
<text x="222.93" y="232.09" fill="#65d5ff" font-family="monospace" font-size="11">4</text>
<line x1="219.10" y1="236.41" x2="217.54" y2="232.73" stroke="#ffcc66" stroke-width="2"/>
<circle cx="219.10" cy="236.41" r="2.5" fill="#ffffff"/>
<circle cx="217.54" cy="232.73" r="2.5" fill="#ffffff"/>
<text x="222.32" y="230.57" fill="#ffcc66" font-family="monospace" font-size="11">5</text>
<line x1="217.54" y1="232.73" x2="217.48" y2="231.82" stroke="#65d5ff" stroke-width="2"/>
<circle cx="217.54" cy="232.73" r="2.5" fill="#ffffff"/>
<circle cx="217.48" cy="231.82" r="2.5" fill="#ffffff"/>
<text x="221.51" y="228.27" fill="#65d5ff" font-family="monospace" font-size="11">6</text>
<line x1="217.48" y1="231.82" x2="218.64" y2="231.85" stroke="#ffcc66" stroke-width="2"/>
<circle cx="217.48" cy="231.82" r="2.5" fill="#ffffff"/>
<circle cx="218.64" cy="231.85" r="2.5" fill="#ffffff"/>
<text x="222.06" y="227.83" fill="#ffcc66" font-family="monospace" font-size="11">7</text>
<line x1="218.64" y1="231.85" x2="219.34" y2="232.67" stroke="#65d5ff" stroke-width="2"/>
<circle cx="218.64" cy="231.85" r="2.5" fill="#ffffff"/>
<circle cx="219.34" cy="232.67" r="2.5" fill="#ffffff"/>
<text x="222.99" y="228.26" fill="#65d5ff" font-family="monospace" font-size="11">8</text>
<line x1="219.34" y1="232.67" x2="219.86" y2="234.40" stroke="#ffcc66" stroke-width="2"/>
<circle cx="219.34" cy="232.67" r="2.5" fill="#ffffff"/>
<circle cx="219.86" cy="234.40" r="2.5" fill="#ffffff"/>
<text x="223.60" y="229.53" fill="#ffcc66" font-family="monospace" font-size="11">9</text>
<line x1="219.86" y1="234.40" x2="219.40" y2="234.68" stroke="#65d5ff" stroke-width="2"/>
<circle cx="219.86" cy="234.40" r="2.5" fill="#ffffff"/>
<circle cx="219.40" cy="234.68" r="2.5" fill="#ffffff"/>
<text x="223.63" y="230.54" fill="#65d5ff" font-family="monospace" font-size="11">10</text>
<line x1="219.40" y1="234.68" x2="219.55" y2="235.74" stroke="#ffcc66" stroke-width="2"/>
<circle cx="219.40" cy="234.68" r="2.5" fill="#ffffff"/>
<circle cx="219.55" cy="235.74" r="2.5" fill="#ffffff"/>
<text x="223.48" y="231.21" fill="#ffcc66" font-family="monospace" font-size="11">11</text>
<line x1="219.55" y1="235.74" x2="218.76" y2="235.77" stroke="#65d5ff" stroke-width="2"/>
<circle cx="219.55" cy="235.74" r="2.5" fill="#ffffff"/>
<circle cx="218.76" cy="235.77" r="2.5" fill="#ffffff"/>
<text x="223.16" y="231.76" fill="#65d5ff" font-family="monospace" font-size="11">12</text>
<line x1="218.76" y1="235.77" x2="218.24" y2="234.65" stroke="#ffcc66" stroke-width="2"/>
<circle cx="218.76" cy="235.77" r="2.5" fill="#ffffff"/>
<circle cx="218.24" cy="234.65" r="2.5" fill="#ffffff"/>
<text x="222.50" y="231.21" fill="#ffcc66" font-family="monospace" font-size="11">13</text>
<line x1="218.24" y1="234.65" x2="217.67" y2="234.61" stroke="#65d5ff" stroke-width="2"/>
<circle cx="218.24" cy="234.65" r="2.5" fill="#ffffff"/>
<circle cx="217.67" cy="234.61" r="2.5" fill="#ffffff"/>
<text x="221.95" y="230.63" fill="#65d5ff" font-family="monospace" font-size="11">14</text>
<line x1="217.67" y1="234.61" x2="217.06" y2="232.42" stroke="#ffcc66" stroke-width="2"/>
<circle cx="217.67" cy="234.61" r="2.5" fill="#ffffff"/>
<circle cx="217.06" cy="232.42" r="2.5" fill="#ffffff"/>
<text x="221.36" y="229.52" fill="#ffcc66" font-family="monospace" font-size="11">15</text>
<line x1="217.06" y1="232.42" x2="217.48" y2="231.82" stroke="#65d5ff" stroke-width="2"/>
<circle cx="217.06" cy="232.42" r="2.5" fill="#ffffff"/>
<circle cx="217.48" cy="231.82" r="2.5" fill="#ffffff"/>
<text x="221.27" y="228.12" fill="#65d5ff" font-family="monospace" font-size="11">16</text>
<line x1="218.88" y1="232.36" x2="219.43" y2="232.33" stroke="#ffcc66" stroke-width="2"/>
<circle cx="218.88" cy="232.36" r="2.5" fill="#ffffff"/>
<circle cx="219.43" cy="232.33" r="2.5" fill="#ffffff"/>
<text x="223.16" y="228.35" fill="#ffcc66" font-family="monospace" font-size="11">17</text>
<line x1="219.43" y1="232.33" x2="219.52" y2="232.58" stroke="#65d5ff" stroke-width="2"/>
<circle cx="219.43" cy="232.33" r="2.5" fill="#ffffff"/>
<circle cx="219.52" cy="232.58" r="2.5" fill="#ffffff"/>
<text x="223.48" y="228.45" fill="#65d5ff" font-family="monospace" font-size="11">18</text>
<line x1="219.52" y1="232.58" x2="218.94" y2="232.61" stroke="#ffcc66" stroke-width="2"/>
<circle cx="219.52" cy="232.58" r="2.5" fill="#ffffff"/>
<circle cx="218.94" cy="232.61" r="2.5" fill="#ffffff"/>
<text x="223.23" y="228.59" fill="#ffcc66" font-family="monospace" font-size="11">19</text>
<line x1="218.94" y1="232.61" x2="218.88" y2="232.36" stroke="#65d5ff" stroke-width="2"/>
<circle cx="218.94" cy="232.61" r="2.5" fill="#ffffff"/>
<circle cx="218.88" cy="232.36" r="2.5" fill="#ffffff"/>
<text x="222.91" y="228.49" fill="#65d5ff" font-family="monospace" font-size="11">20</text>
<line x1="219.52" y1="233.15" x2="218.94" y2="233.18" stroke="#ffcc66" stroke-width="2"/>
<circle cx="219.52" cy="233.15" r="2.5" fill="#ffffff"/>
<circle cx="218.94" cy="233.18" r="2.5" fill="#ffffff"/>
<text x="223.23" y="229.17" fill="#ffcc66" font-family="monospace" font-size="11">21</text>
<line x1="218.94" y1="233.18" x2="218.94" y2="232.61" stroke="#65d5ff" stroke-width="2"/>
<circle cx="218.94" cy="233.18" r="2.5" fill="#ffffff"/>
<circle cx="218.94" cy="232.61" r="2.5" fill="#ffffff"/>
<text x="222.94" y="228.90" fill="#65d5ff" font-family="monospace" font-size="11">22</text>
<line x1="218.94" y1="232.61" x2="219.52" y2="232.58" stroke="#ffcc66" stroke-width="2"/>
<circle cx="218.94" cy="232.61" r="2.5" fill="#ffffff"/>
<circle cx="219.52" cy="232.58" r="2.5" fill="#ffffff"/>
<text x="223.23" y="228.59" fill="#ffcc66" font-family="monospace" font-size="11">23</text>
<line x1="219.52" y1="232.58" x2="219.52" y2="233.15" stroke="#65d5ff" stroke-width="2"/>
<circle cx="219.52" cy="232.58" r="2.5" fill="#ffffff"/>
<circle cx="219.52" cy="233.15" r="2.5" fill="#ffffff"/>
<text x="223.52" y="228.87" fill="#65d5ff" font-family="monospace" font-size="11">24</text>
<line x1="218.94" y1="233.18" x2="218.88" y2="232.94" stroke="#ffcc66" stroke-width="2"/>
<circle cx="218.94" cy="233.18" r="2.5" fill="#ffffff"/>
<circle cx="218.88" cy="232.94" r="2.5" fill="#ffffff"/>
<text x="222.91" y="229.06" fill="#ffcc66" font-family="monospace" font-size="11">25</text>
<line x1="218.88" y1="232.94" x2="218.88" y2="232.36" stroke="#65d5ff" stroke-width="2"/>
<circle cx="218.88" cy="232.94" r="2.5" fill="#ffffff"/>
<circle cx="218.88" cy="232.36" r="2.5" fill="#ffffff"/>
<text x="222.88" y="228.65" fill="#65d5ff" font-family="monospace" font-size="11">26</text>
<line x1="218.88" y1="232.36" x2="218.94" y2="232.61" stroke="#ffcc66" stroke-width="2"/>
<circle cx="218.88" cy="232.36" r="2.5" fill="#ffffff"/>
<circle cx="218.94" cy="232.61" r="2.5" fill="#ffffff"/>
<text x="222.91" y="228.49" fill="#ffcc66" font-family="monospace" font-size="11">27</text>
<line x1="218.94" y1="232.61" x2="218.94" y2="233.18" stroke="#65d5ff" stroke-width="2"/>
<circle cx="218.94" cy="232.61" r="2.5" fill="#ffffff"/>
<circle cx="218.94" cy="233.18" r="2.5" fill="#ffffff"/>
<text x="222.94" y="228.90" fill="#65d5ff" font-family="monospace" font-size="11">28</text>
<rect x="420" y="100" width="360" height="360" fill="#151c24" stroke="#506070"/>
<line x1="465" y1="280.0" x2="735" y2="280.0" stroke="#536579"/>
<line x1="600.0" y1="145" x2="600.0" y2="415" stroke="#536579"/>
<text x="428" y="122" fill="#f1f5f9" font-family="sans-serif" font-size="16">X-Z</text>
<text x="428" y="450" fill="#aab7c4" font-family="sans-serif" font-size="11">range ±4438</text>
<line x1="608.76" y1="151.72" x2="609.55" y2="151.66" stroke="#65d5ff" stroke-width="2"/>
<circle cx="608.76" cy="151.72" r="2.5" fill="#ffffff"/>
<circle cx="609.55" cy="151.66" r="2.5" fill="#ffffff"/>
<text x="613.16" y="147.69" fill="#65d5ff" font-family="monospace" font-size="11">0</text>
<line x1="609.55" y1="151.66" x2="609.10" y2="151.30" stroke="#ffcc66" stroke-width="2"/>
<circle cx="609.55" cy="151.66" r="2.5" fill="#ffffff"/>
<circle cx="609.10" cy="151.30" r="2.5" fill="#ffffff"/>
<text x="613.32" y="147.48" fill="#ffcc66" font-family="monospace" font-size="11">1</text>
<line x1="609.10" y1="151.30" x2="608.76" y2="151.72" stroke="#65d5ff" stroke-width="2"/>
<circle cx="609.10" cy="151.30" r="2.5" fill="#ffffff"/>
<circle cx="608.76" cy="151.72" r="2.5" fill="#ffffff"/>
<text x="612.93" y="147.51" fill="#65d5ff" font-family="monospace" font-size="11">2</text>
<line x1="607.48" y1="145.00" x2="608.76" y2="151.72" stroke="#ffcc66" stroke-width="2"/>
<circle cx="607.48" cy="145.00" r="2.5" fill="#ffffff"/>
<circle cx="608.76" cy="151.72" r="2.5" fill="#ffffff"/>
<text x="612.12" y="144.36" fill="#ffcc66" font-family="monospace" font-size="11">3</text>
<line x1="608.76" y1="151.72" x2="609.10" y2="151.30" stroke="#65d5ff" stroke-width="2"/>
<circle cx="608.76" cy="151.72" r="2.5" fill="#ffffff"/>
<circle cx="609.10" cy="151.30" r="2.5" fill="#ffffff"/>
<text x="612.93" y="147.51" fill="#65d5ff" font-family="monospace" font-size="11">4</text>
<line x1="609.10" y1="151.30" x2="607.54" y2="145.03" stroke="#ffcc66" stroke-width="2"/>
<circle cx="609.10" cy="151.30" r="2.5" fill="#ffffff"/>
<circle cx="607.54" cy="145.03" r="2.5" fill="#ffffff"/>
<text x="612.32" y="144.16" fill="#ffcc66" font-family="monospace" font-size="11">5</text>
<line x1="607.54" y1="145.03" x2="607.48" y2="145.00" stroke="#65d5ff" stroke-width="2"/>
<circle cx="607.54" cy="145.03" r="2.5" fill="#ffffff"/>
<circle cx="607.48" cy="145.00" r="2.5" fill="#ffffff"/>
<text x="611.51" y="141.02" fill="#65d5ff" font-family="monospace" font-size="11">6</text>
<line x1="607.48" y1="145.00" x2="608.64" y2="145.03" stroke="#ffcc66" stroke-width="2"/>
<circle cx="607.48" cy="145.00" r="2.5" fill="#ffffff"/>
<circle cx="608.64" cy="145.03" r="2.5" fill="#ffffff"/>
<text x="612.06" y="141.02" fill="#ffcc66" font-family="monospace" font-size="11">7</text>
<line x1="608.64" y1="145.03" x2="609.34" y2="146.40" stroke="#65d5ff" stroke-width="2"/>
<circle cx="608.64" cy="145.03" r="2.5" fill="#ffffff"/>
<circle cx="609.34" cy="146.40" r="2.5" fill="#ffffff"/>
<text x="612.99" y="141.71" fill="#65d5ff" font-family="monospace" font-size="11">8</text>
<line x1="609.34" y1="146.40" x2="609.86" y2="149.38" stroke="#ffcc66" stroke-width="2"/>
<circle cx="609.34" cy="146.40" r="2.5" fill="#ffffff"/>
<circle cx="609.86" cy="149.38" r="2.5" fill="#ffffff"/>
<text x="613.60" y="143.89" fill="#ffcc66" font-family="monospace" font-size="11">9</text>
<line x1="609.86" y1="149.38" x2="609.40" y2="149.84" stroke="#65d5ff" stroke-width="2"/>
<circle cx="609.86" cy="149.38" r="2.5" fill="#ffffff"/>
<circle cx="609.40" cy="149.84" r="2.5" fill="#ffffff"/>
<text x="613.63" y="145.61" fill="#65d5ff" font-family="monospace" font-size="11">10</text>
<line x1="609.40" y1="149.84" x2="609.55" y2="151.66" stroke="#ffcc66" stroke-width="2"/>
<circle cx="609.40" cy="149.84" r="2.5" fill="#ffffff"/>
<circle cx="609.55" cy="151.66" r="2.5" fill="#ffffff"/>
<text x="613.48" y="146.75" fill="#ffcc66" font-family="monospace" font-size="11">11</text>
<line x1="609.55" y1="151.66" x2="608.76" y2="151.72" stroke="#65d5ff" stroke-width="2"/>
<circle cx="609.55" cy="151.66" r="2.5" fill="#ffffff"/>
<circle cx="608.76" cy="151.72" r="2.5" fill="#ffffff"/>
<text x="613.16" y="147.69" fill="#65d5ff" font-family="monospace" font-size="11">12</text>
<line x1="608.76" y1="151.72" x2="608.24" y2="149.78" stroke="#ffcc66" stroke-width="2"/>
<circle cx="608.76" cy="151.72" r="2.5" fill="#ffffff"/>
<circle cx="608.24" cy="149.78" r="2.5" fill="#ffffff"/>
<text x="612.50" y="146.75" fill="#ffcc66" font-family="monospace" font-size="11">13</text>
<line x1="608.24" y1="149.78" x2="607.67" y2="149.78" stroke="#65d5ff" stroke-width="2"/>
<circle cx="608.24" cy="149.78" r="2.5" fill="#ffffff"/>
<circle cx="607.67" cy="149.78" r="2.5" fill="#ffffff"/>
<text x="611.95" y="145.78" fill="#65d5ff" font-family="monospace" font-size="11">14</text>
<line x1="607.67" y1="149.78" x2="607.06" y2="146.03" stroke="#ffcc66" stroke-width="2"/>
<circle cx="607.67" cy="149.78" r="2.5" fill="#ffffff"/>
<circle cx="607.06" cy="146.03" r="2.5" fill="#ffffff"/>
<text x="611.36" y="143.91" fill="#ffcc66" font-family="monospace" font-size="11">15</text>
<line x1="607.06" y1="146.03" x2="607.48" y2="145.00" stroke="#65d5ff" stroke-width="2"/>
<circle cx="607.06" cy="146.03" r="2.5" fill="#ffffff"/>
<circle cx="607.48" cy="145.00" r="2.5" fill="#ffffff"/>
<text x="611.27" y="141.52" fill="#65d5ff" font-family="monospace" font-size="11">16</text>
<line x1="608.88" y1="147.40" x2="609.43" y2="147.34" stroke="#ffcc66" stroke-width="2"/>
<circle cx="608.88" cy="147.40" r="2.5" fill="#ffffff"/>
<circle cx="609.43" cy="147.34" r="2.5" fill="#ffffff"/>
<text x="613.16" y="143.37" fill="#ffcc66" font-family="monospace" font-size="11">17</text>
<line x1="609.43" y1="147.34" x2="609.52" y2="147.74" stroke="#65d5ff" stroke-width="2"/>
<circle cx="609.43" cy="147.34" r="2.5" fill="#ffffff"/>
<circle cx="609.52" cy="147.74" r="2.5" fill="#ffffff"/>
<text x="613.48" y="143.54" fill="#65d5ff" font-family="monospace" font-size="11">18</text>
<line x1="609.52" y1="147.74" x2="608.94" y2="147.80" stroke="#ffcc66" stroke-width="2"/>
<circle cx="609.52" cy="147.74" r="2.5" fill="#ffffff"/>
<circle cx="608.94" cy="147.80" r="2.5" fill="#ffffff"/>
<text x="613.23" y="143.77" fill="#ffcc66" font-family="monospace" font-size="11">19</text>
<line x1="608.94" y1="147.80" x2="608.88" y2="147.40" stroke="#65d5ff" stroke-width="2"/>
<circle cx="608.94" cy="147.80" r="2.5" fill="#ffffff"/>
<circle cx="608.88" cy="147.40" r="2.5" fill="#ffffff"/>
<text x="612.91" y="143.60" fill="#65d5ff" font-family="monospace" font-size="11">20</text>
<line x1="609.52" y1="147.65" x2="608.94" y2="147.71" stroke="#ffcc66" stroke-width="2"/>
<circle cx="609.52" cy="147.65" r="2.5" fill="#ffffff"/>
<circle cx="608.94" cy="147.71" r="2.5" fill="#ffffff"/>
<text x="613.23" y="143.68" fill="#ffcc66" font-family="monospace" font-size="11">21</text>
<line x1="608.94" y1="147.71" x2="608.94" y2="147.80" stroke="#65d5ff" stroke-width="2"/>
<circle cx="608.94" cy="147.71" r="2.5" fill="#ffffff"/>
<circle cx="608.94" cy="147.80" r="2.5" fill="#ffffff"/>
<text x="612.94" y="143.75" fill="#65d5ff" font-family="monospace" font-size="11">22</text>
<line x1="608.94" y1="147.80" x2="609.52" y2="147.74" stroke="#ffcc66" stroke-width="2"/>
<circle cx="608.94" cy="147.80" r="2.5" fill="#ffffff"/>
<circle cx="609.52" cy="147.74" r="2.5" fill="#ffffff"/>
<text x="613.23" y="143.77" fill="#ffcc66" font-family="monospace" font-size="11">23</text>
<line x1="609.52" y1="147.74" x2="609.52" y2="147.65" stroke="#65d5ff" stroke-width="2"/>
<circle cx="609.52" cy="147.74" r="2.5" fill="#ffffff"/>
<circle cx="609.52" cy="147.65" r="2.5" fill="#ffffff"/>
<text x="613.52" y="143.69" fill="#65d5ff" font-family="monospace" font-size="11">24</text>
<line x1="608.94" y1="147.71" x2="608.88" y2="147.31" stroke="#ffcc66" stroke-width="2"/>
<circle cx="608.94" cy="147.71" r="2.5" fill="#ffffff"/>
<circle cx="608.88" cy="147.31" r="2.5" fill="#ffffff"/>
<text x="612.91" y="143.51" fill="#ffcc66" font-family="monospace" font-size="11">25</text>
<line x1="608.88" y1="147.31" x2="608.88" y2="147.40" stroke="#65d5ff" stroke-width="2"/>
<circle cx="608.88" cy="147.31" r="2.5" fill="#ffffff"/>
<circle cx="608.88" cy="147.40" r="2.5" fill="#ffffff"/>
<text x="612.88" y="143.36" fill="#65d5ff" font-family="monospace" font-size="11">26</text>
<line x1="608.88" y1="147.40" x2="608.94" y2="147.80" stroke="#ffcc66" stroke-width="2"/>
<circle cx="608.88" cy="147.40" r="2.5" fill="#ffffff"/>
<circle cx="608.94" cy="147.80" r="2.5" fill="#ffffff"/>
<text x="612.91" y="143.60" fill="#ffcc66" font-family="monospace" font-size="11">27</text>
<line x1="608.94" y1="147.80" x2="608.94" y2="147.71" stroke="#65d5ff" stroke-width="2"/>
<circle cx="608.94" cy="147.80" r="2.5" fill="#ffffff"/>
<circle cx="608.94" cy="147.71" r="2.5" fill="#ffffff"/>
<text x="612.94" y="143.75" fill="#65d5ff" font-family="monospace" font-size="11">28</text>
<rect x="810" y="100" width="360" height="360" fill="#151c24" stroke="#506070"/>
<line x1="855" y1="280.0" x2="1125" y2="280.0" stroke="#536579"/>
<line x1="990.0" y1="145" x2="990.0" y2="415" stroke="#536579"/>
<text x="818" y="122" fill="#f1f5f9" font-family="sans-serif" font-size="16">Y-Z</text>
<text x="818" y="450" fill="#aab7c4" font-family="sans-serif" font-size="11">range ±4438</text>
<line x1="1034.23" y1="151.72" x2="1034.26" y2="151.66" stroke="#65d5ff" stroke-width="2"/>
<circle cx="1034.23" cy="151.72" r="2.5" fill="#ffffff"/>
<circle cx="1034.26" cy="151.66" r="2.5" fill="#ffffff"/>
<text x="1038.24" y="147.69" fill="#65d5ff" font-family="monospace" font-size="11">0</text>
<line x1="1034.26" y1="151.66" x2="1033.59" y2="151.30" stroke="#ffcc66" stroke-width="2"/>
<circle cx="1034.26" cy="151.66" r="2.5" fill="#ffffff"/>
<circle cx="1033.59" cy="151.30" r="2.5" fill="#ffffff"/>
<text x="1037.93" y="147.48" fill="#ffcc66" font-family="monospace" font-size="11">1</text>
<line x1="1033.59" y1="151.30" x2="1034.23" y2="151.72" stroke="#65d5ff" stroke-width="2"/>
<circle cx="1033.59" cy="151.30" r="2.5" fill="#ffffff"/>
<circle cx="1034.23" cy="151.72" r="2.5" fill="#ffffff"/>
<text x="1037.91" y="147.51" fill="#65d5ff" font-family="monospace" font-size="11">2</text>
<line x1="1038.18" y1="145.00" x2="1034.23" y2="151.72" stroke="#ffcc66" stroke-width="2"/>
<circle cx="1038.18" cy="145.00" r="2.5" fill="#ffffff"/>
<circle cx="1034.23" cy="151.72" r="2.5" fill="#ffffff"/>
<text x="1040.21" y="144.36" fill="#ffcc66" font-family="monospace" font-size="11">3</text>
<line x1="1034.23" y1="151.72" x2="1033.59" y2="151.30" stroke="#65d5ff" stroke-width="2"/>
<circle cx="1034.23" cy="151.72" r="2.5" fill="#ffffff"/>
<circle cx="1033.59" cy="151.30" r="2.5" fill="#ffffff"/>
<text x="1037.91" y="147.51" fill="#65d5ff" font-family="monospace" font-size="11">4</text>
<line x1="1033.59" y1="151.30" x2="1037.27" y2="145.03" stroke="#ffcc66" stroke-width="2"/>
<circle cx="1033.59" cy="151.30" r="2.5" fill="#ffffff"/>
<circle cx="1037.27" cy="145.03" r="2.5" fill="#ffffff"/>
<text x="1039.43" y="144.16" fill="#ffcc66" font-family="monospace" font-size="11">5</text>
<line x1="1037.27" y1="145.03" x2="1038.18" y2="145.00" stroke="#65d5ff" stroke-width="2"/>
<circle cx="1037.27" cy="145.03" r="2.5" fill="#ffffff"/>
<circle cx="1038.18" cy="145.00" r="2.5" fill="#ffffff"/>
<text x="1041.73" y="141.02" fill="#65d5ff" font-family="monospace" font-size="11">6</text>
<line x1="1038.18" y1="145.00" x2="1038.15" y2="145.03" stroke="#ffcc66" stroke-width="2"/>
<circle cx="1038.18" cy="145.00" r="2.5" fill="#ffffff"/>
<circle cx="1038.15" cy="145.03" r="2.5" fill="#ffffff"/>
<text x="1042.17" y="141.02" fill="#ffcc66" font-family="monospace" font-size="11">7</text>
<line x1="1038.15" y1="145.03" x2="1037.33" y2="146.40" stroke="#65d5ff" stroke-width="2"/>
<circle cx="1038.15" cy="145.03" r="2.5" fill="#ffffff"/>
<circle cx="1037.33" cy="146.40" r="2.5" fill="#ffffff"/>
<text x="1041.74" y="141.71" fill="#65d5ff" font-family="monospace" font-size="11">8</text>
<line x1="1037.33" y1="146.40" x2="1035.60" y2="149.38" stroke="#ffcc66" stroke-width="2"/>
<circle cx="1037.33" cy="146.40" r="2.5" fill="#ffffff"/>
<circle cx="1035.60" cy="149.38" r="2.5" fill="#ffffff"/>
<text x="1040.47" y="143.89" fill="#ffcc66" font-family="monospace" font-size="11">9</text>
<line x1="1035.60" y1="149.38" x2="1035.32" y2="149.84" stroke="#65d5ff" stroke-width="2"/>
<circle cx="1035.60" cy="149.38" r="2.5" fill="#ffffff"/>
<circle cx="1035.32" cy="149.84" r="2.5" fill="#ffffff"/>
<text x="1039.46" y="145.61" fill="#65d5ff" font-family="monospace" font-size="11">10</text>
<line x1="1035.32" y1="149.84" x2="1034.26" y2="151.66" stroke="#ffcc66" stroke-width="2"/>
<circle cx="1035.32" cy="149.84" r="2.5" fill="#ffffff"/>
<circle cx="1034.26" cy="151.66" r="2.5" fill="#ffffff"/>
<text x="1038.79" y="146.75" fill="#ffcc66" font-family="monospace" font-size="11">11</text>
<line x1="1034.26" y1="151.66" x2="1034.23" y2="151.72" stroke="#65d5ff" stroke-width="2"/>
<circle cx="1034.26" cy="151.66" r="2.5" fill="#ffffff"/>
<circle cx="1034.23" cy="151.72" r="2.5" fill="#ffffff"/>
<text x="1038.24" y="147.69" fill="#65d5ff" font-family="monospace" font-size="11">12</text>
<line x1="1034.23" y1="151.72" x2="1035.35" y2="149.78" stroke="#ffcc66" stroke-width="2"/>
<circle cx="1034.23" cy="151.72" r="2.5" fill="#ffffff"/>
<circle cx="1035.35" cy="149.78" r="2.5" fill="#ffffff"/>
<text x="1038.79" y="146.75" fill="#ffcc66" font-family="monospace" font-size="11">13</text>
<line x1="1035.35" y1="149.78" x2="1035.39" y2="149.78" stroke="#65d5ff" stroke-width="2"/>
<circle cx="1035.35" cy="149.78" r="2.5" fill="#ffffff"/>
<circle cx="1035.39" cy="149.78" r="2.5" fill="#ffffff"/>
<text x="1039.37" y="145.78" fill="#65d5ff" font-family="monospace" font-size="11">14</text>
<line x1="1035.39" y1="149.78" x2="1037.58" y2="146.03" stroke="#ffcc66" stroke-width="2"/>
<circle cx="1035.39" cy="149.78" r="2.5" fill="#ffffff"/>
<circle cx="1037.58" cy="146.03" r="2.5" fill="#ffffff"/>
<text x="1040.48" y="143.91" fill="#ffcc66" font-family="monospace" font-size="11">15</text>
<line x1="1037.58" y1="146.03" x2="1038.18" y2="145.00" stroke="#65d5ff" stroke-width="2"/>
<circle cx="1037.58" cy="146.03" r="2.5" fill="#ffffff"/>
<circle cx="1038.18" cy="145.00" r="2.5" fill="#ffffff"/>
<text x="1041.88" y="141.52" fill="#65d5ff" font-family="monospace" font-size="11">16</text>
<line x1="1037.64" y1="147.40" x2="1037.67" y2="147.34" stroke="#ffcc66" stroke-width="2"/>
<circle cx="1037.64" cy="147.40" r="2.5" fill="#ffffff"/>
<circle cx="1037.67" cy="147.34" r="2.5" fill="#ffffff"/>
<text x="1041.65" y="143.37" fill="#ffcc66" font-family="monospace" font-size="11">17</text>
<line x1="1037.67" y1="147.34" x2="1037.42" y2="147.74" stroke="#65d5ff" stroke-width="2"/>
<circle cx="1037.67" cy="147.34" r="2.5" fill="#ffffff"/>
<circle cx="1037.42" cy="147.74" r="2.5" fill="#ffffff"/>
<text x="1041.55" y="143.54" fill="#65d5ff" font-family="monospace" font-size="11">18</text>
<line x1="1037.42" y1="147.74" x2="1037.39" y2="147.80" stroke="#ffcc66" stroke-width="2"/>
<circle cx="1037.42" cy="147.74" r="2.5" fill="#ffffff"/>
<circle cx="1037.39" cy="147.80" r="2.5" fill="#ffffff"/>
<text x="1041.41" y="143.77" fill="#ffcc66" font-family="monospace" font-size="11">19</text>
<line x1="1037.39" y1="147.80" x2="1037.64" y2="147.40" stroke="#65d5ff" stroke-width="2"/>
<circle cx="1037.39" cy="147.80" r="2.5" fill="#ffffff"/>
<circle cx="1037.64" cy="147.40" r="2.5" fill="#ffffff"/>
<text x="1041.51" y="143.60" fill="#65d5ff" font-family="monospace" font-size="11">20</text>
<line x1="1036.85" y1="147.65" x2="1036.82" y2="147.71" stroke="#ffcc66" stroke-width="2"/>
<circle cx="1036.85" cy="147.65" r="2.5" fill="#ffffff"/>
<circle cx="1036.82" cy="147.71" r="2.5" fill="#ffffff"/>
<text x="1040.83" y="143.68" fill="#ffcc66" font-family="monospace" font-size="11">21</text>
<line x1="1036.82" y1="147.71" x2="1037.39" y2="147.80" stroke="#65d5ff" stroke-width="2"/>
<circle cx="1036.82" cy="147.71" r="2.5" fill="#ffffff"/>
<circle cx="1037.39" cy="147.80" r="2.5" fill="#ffffff"/>
<text x="1041.10" y="143.75" fill="#65d5ff" font-family="monospace" font-size="11">22</text>
<line x1="1037.39" y1="147.80" x2="1037.42" y2="147.74" stroke="#ffcc66" stroke-width="2"/>
<circle cx="1037.39" cy="147.80" r="2.5" fill="#ffffff"/>
<circle cx="1037.42" cy="147.74" r="2.5" fill="#ffffff"/>
<text x="1041.41" y="143.77" fill="#ffcc66" font-family="monospace" font-size="11">23</text>
<line x1="1037.42" y1="147.74" x2="1036.85" y2="147.65" stroke="#65d5ff" stroke-width="2"/>
<circle cx="1037.42" cy="147.74" r="2.5" fill="#ffffff"/>
<circle cx="1036.85" cy="147.65" r="2.5" fill="#ffffff"/>
<text x="1041.13" y="143.69" fill="#65d5ff" font-family="monospace" font-size="11">24</text>
<line x1="1036.82" y1="147.71" x2="1037.06" y2="147.31" stroke="#ffcc66" stroke-width="2"/>
<circle cx="1036.82" cy="147.71" r="2.5" fill="#ffffff"/>
<circle cx="1037.06" cy="147.31" r="2.5" fill="#ffffff"/>
<text x="1040.94" y="143.51" fill="#ffcc66" font-family="monospace" font-size="11">25</text>
<line x1="1037.06" y1="147.31" x2="1037.64" y2="147.40" stroke="#65d5ff" stroke-width="2"/>
<circle cx="1037.06" cy="147.31" r="2.5" fill="#ffffff"/>
<circle cx="1037.64" cy="147.40" r="2.5" fill="#ffffff"/>
<text x="1041.35" y="143.36" fill="#65d5ff" font-family="monospace" font-size="11">26</text>
<line x1="1037.64" y1="147.40" x2="1037.39" y2="147.80" stroke="#ffcc66" stroke-width="2"/>
<circle cx="1037.64" cy="147.40" r="2.5" fill="#ffffff"/>
<circle cx="1037.39" cy="147.80" r="2.5" fill="#ffffff"/>
<text x="1041.51" y="143.60" fill="#ffcc66" font-family="monospace" font-size="11">27</text>
<line x1="1037.39" y1="147.80" x2="1036.82" y2="147.71" stroke="#65d5ff" stroke-width="2"/>
<circle cx="1037.39" cy="147.80" r="2.5" fill="#ffffff"/>
<circle cx="1036.82" cy="147.71" r="2.5" fill="#ffffff"/>
<text x="1041.10" y="143.75" fill="#65d5ff" font-family="monospace" font-size="11">28</text>
</svg>
