<svg xmlns="http://www.w3.org/2000/svg" width="1200" height="460" viewBox="0 0 1200 460">
<rect width="100%" height="100%" fill="#101419"/>
<text x="24" y="30" fill="#f1f5f9" font-family="sans-serif" font-size="20">Later bridge stream polygons $C36298</text>
<text x="24" y="54" fill="#aab7c4" font-family="sans-serif" font-size="13">run031 frame 14500, three C2FF48 submissions in static scene Hunk 43 · 10 traced segment(s) · workspace coordinates, not asserted source mesh</text>
<rect x="30" y="100" width="360" height="360" fill="#151c24" stroke="#506070"/>
<line x1="75" y1="280.0" x2="345" y2="280.0" stroke="#536579"/>
<line x1="210.0" y1="145" x2="210.0" y2="415" stroke="#536579"/>
<text x="38" y="122" fill="#f1f5f9" font-family="sans-serif" font-size="16">X-Y</text>
<text x="38" y="450" fill="#aab7c4" font-family="sans-serif" font-size="11">range ±1104</text>
<line x1="138.59" y1="246.37" x2="136.75" y2="296.02" stroke="#65d5ff" stroke-width="2"/>
<circle cx="138.59" cy="246.37" r="2.5" fill="#ffffff"/>
<circle cx="136.75" cy="296.02" r="2.5" fill="#ffffff"/>
<text x="141.67" y="267.20" fill="#65d5ff" font-family="monospace" font-size="11">0</text>
<line x1="136.75" y1="296.02" x2="138.34" y2="296.02" stroke="#ffcc66" stroke-width="2"/>
<circle cx="136.75" cy="296.02" r="2.5" fill="#ffffff"/>
<circle cx="138.34" cy="296.02" r="2.5" fill="#ffffff"/>
<text x="141.55" y="292.02" fill="#ffcc66" font-family="monospace" font-size="11">1</text>
<line x1="138.34" y1="296.02" x2="138.59" y2="246.37" stroke="#65d5ff" stroke-width="2"/>
<circle cx="138.34" cy="296.02" r="2.5" fill="#ffffff"/>
<circle cx="138.59" cy="246.37" r="2.5" fill="#ffffff"/>
<text x="142.46" y="267.20" fill="#65d5ff" font-family="monospace" font-size="11">2</text>
<line x1="121.96" y1="277.07" x2="203.40" y2="269.24" stroke="#ffcc66" stroke-width="2"/>
<circle cx="121.96" cy="277.07" r="2.5" fill="#ffffff"/>
<circle cx="203.40" cy="269.24" r="2.5" fill="#ffffff"/>
<text x="166.68" y="269.15" fill="#ffcc66" font-family="monospace" font-size="11">3</text>
<line x1="203.40" y1="269.24" x2="206.09" y2="269.97" stroke="#65d5ff" stroke-width="2"/>
<circle cx="203.40" cy="269.24" r="2.5" fill="#ffffff"/>
<circle cx="206.09" cy="269.97" r="2.5" fill="#ffffff"/>
<text x="208.74" y="265.61" fill="#65d5ff" font-family="monospace" font-size="11">4</text>
<line x1="206.09" y1="269.97" x2="124.65" y2="277.68" stroke="#ffcc66" stroke-width="2"/>
<circle cx="206.09" cy="269.97" r="2.5" fill="#ffffff"/>
<circle cx="124.65" cy="277.68" r="2.5" fill="#ffffff"/>
<text x="169.37" y="269.82" fill="#ffcc66" font-family="monospace" font-size="11">5</text>
<line x1="124.65" y1="277.68" x2="121.96" y2="277.07" stroke="#65d5ff" stroke-width="2"/>
<circle cx="124.65" cy="277.68" r="2.5" fill="#ffffff"/>
<circle cx="121.96" cy="277.07" r="2.5" fill="#ffffff"/>
<text x="127.30" y="273.37" fill="#65d5ff" font-family="monospace" font-size="11">6</text>
<line x1="141.28" y1="247.11" x2="139.57" y2="296.75" stroke="#ffcc66" stroke-width="2"/>
<circle cx="141.28" cy="247.11" r="2.5" fill="#ffffff"/>
<circle cx="139.57" cy="296.75" r="2.5" fill="#ffffff"/>
<text x="144.42" y="267.93" fill="#ffcc66" font-family="monospace" font-size="11">7</text>
<line x1="139.57" y1="296.75" x2="141.15" y2="296.75" stroke="#65d5ff" stroke-width="2"/>
<circle cx="139.57" cy="296.75" r="2.5" fill="#ffffff"/>
<circle cx="141.15" cy="296.75" r="2.5" fill="#ffffff"/>
<text x="144.36" y="292.75" fill="#65d5ff" font-family="monospace" font-size="11">8</text>
<line x1="141.15" y1="296.75" x2="141.28" y2="247.11" stroke="#ffcc66" stroke-width="2"/>
<circle cx="141.15" cy="296.75" r="2.5" fill="#ffffff"/>
<circle cx="141.28" cy="247.11" r="2.5" fill="#ffffff"/>
<text x="145.22" y="267.93" fill="#ffcc66" font-family="monospace" font-size="11">9</text>
<rect x="420" y="100" width="360" height="360" fill="#151c24" stroke="#506070"/>
<line x1="465" y1="280.0" x2="735" y2="280.0" stroke="#536579"/>
<line x1="600.0" y1="145" x2="600.0" y2="415" stroke="#536579"/>
<text x="428" y="122" fill="#f1f5f9" font-family="sans-serif" font-size="16">X-Z</text>
<text x="428" y="450" fill="#aab7c4" font-family="sans-serif" font-size="11">range ±1104</text>
<line x1="528.59" y1="184.38" x2="526.75" y2="181.44" stroke="#65d5ff" stroke-width="2"/>
<circle cx="528.59" cy="184.38" r="2.5" fill="#ffffff"/>
<circle cx="526.75" cy="181.44" r="2.5" fill="#ffffff"/>
<text x="531.67" y="178.91" fill="#65d5ff" font-family="monospace" font-size="11">0</text>
<line x1="526.75" y1="181.44" x2="528.34" y2="181.32" stroke="#ffcc66" stroke-width="2"/>
<circle cx="526.75" cy="181.44" r="2.5" fill="#ffffff"/>
<circle cx="528.34" cy="181.32" r="2.5" fill="#ffffff"/>
<text x="531.55" y="177.38" fill="#ffcc66" font-family="monospace" font-size="11">1</text>
<line x1="528.34" y1="181.32" x2="528.59" y2="184.38" stroke="#65d5ff" stroke-width="2"/>
<circle cx="528.34" cy="181.32" r="2.5" fill="#ffffff"/>
<circle cx="528.59" cy="184.38" r="2.5" fill="#ffffff"/>
<text x="532.46" y="178.85" fill="#65d5ff" font-family="monospace" font-size="11">2</text>
<line x1="511.96" y1="191.96" x2="593.40" y2="145.00" stroke="#ffcc66" stroke-width="2"/>
<circle cx="511.96" cy="191.96" r="2.5" fill="#ffffff"/>
<circle cx="593.40" cy="145.00" r="2.5" fill="#ffffff"/>
<text x="556.68" y="164.48" fill="#ffcc66" font-family="monospace" font-size="11">3</text>
<line x1="593.40" y1="145.00" x2="596.09" y2="147.81" stroke="#65d5ff" stroke-width="2"/>
<circle cx="593.40" cy="145.00" r="2.5" fill="#ffffff"/>
<circle cx="596.09" cy="147.81" r="2.5" fill="#ffffff"/>
<text x="598.74" y="142.41" fill="#65d5ff" font-family="monospace" font-size="11">4</text>
<line x1="596.09" y1="147.81" x2="514.65" y2="194.65" stroke="#ffcc66" stroke-width="2"/>
<circle cx="596.09" cy="147.81" r="2.5" fill="#ffffff"/>
<circle cx="514.65" cy="194.65" r="2.5" fill="#ffffff"/>
<text x="559.37" y="167.23" fill="#ffcc66" font-family="monospace" font-size="11">5</text>
<line x1="514.65" y1="194.65" x2="511.96" y2="191.96" stroke="#65d5ff" stroke-width="2"/>
<circle cx="514.65" cy="194.65" r="2.5" fill="#ffffff"/>
<circle cx="511.96" cy="191.96" r="2.5" fill="#ffffff"/>
<text x="517.30" y="189.30" fill="#65d5ff" font-family="monospace" font-size="11">6</text>
<line x1="531.28" y1="187.19" x2="529.57" y2="184.38" stroke="#ffcc66" stroke-width="2"/>
<circle cx="531.28" cy="187.19" r="2.5" fill="#ffffff"/>
<circle cx="529.57" cy="184.38" r="2.5" fill="#ffffff"/>
<text x="534.42" y="181.78" fill="#ffcc66" font-family="monospace" font-size="11">7</text>
<line x1="529.57" y1="184.38" x2="531.15" y2="184.25" stroke="#65d5ff" stroke-width="2"/>
<circle cx="529.57" cy="184.38" r="2.5" fill="#ffffff"/>
<circle cx="531.15" cy="184.25" r="2.5" fill="#ffffff"/>
<text x="534.36" y="180.31" fill="#65d5ff" font-family="monospace" font-size="11">8</text>
<line x1="531.15" y1="184.25" x2="531.28" y2="187.19" stroke="#ffcc66" stroke-width="2"/>
<circle cx="531.15" cy="184.25" r="2.5" fill="#ffffff"/>
<circle cx="531.28" cy="187.19" r="2.5" fill="#ffffff"/>
<text x="535.22" y="181.72" fill="#ffcc66" font-family="monospace" font-size="11">9</text>
<rect x="810" y="100" width="360" height="360" fill="#151c24" stroke="#506070"/>
<line x1="855" y1="280.0" x2="1125" y2="280.0" stroke="#536579"/>
<line x1="990.0" y1="145" x2="990.0" y2="415" stroke="#536579"/>
<text x="818" y="122" fill="#f1f5f9" font-family="sans-serif" font-size="16">Y-Z</text>
<text x="818" y="450" fill="#aab7c4" font-family="sans-serif" font-size="11">range ±1104</text>
<line x1="1023.63" y1="184.38" x2="973.98" y2="181.44" stroke="#65d5ff" stroke-width="2"/>
<circle cx="1023.63" cy="184.38" r="2.5" fill="#ffffff"/>
<circle cx="973.98" cy="181.44" r="2.5" fill="#ffffff"/>
<text x="1002.80" y="178.91" fill="#65d5ff" font-family="monospace" font-size="11">0</text>
<line x1="973.98" y1="181.44" x2="973.98" y2="181.32" stroke="#ffcc66" stroke-width="2"/>
<circle cx="973.98" cy="181.44" r="2.5" fill="#ffffff"/>
<circle cx="973.98" cy="181.32" r="2.5" fill="#ffffff"/>
<text x="977.98" y="177.38" fill="#ffcc66" font-family="monospace" font-size="11">1</text>
<line x1="973.98" y1="181.32" x2="1023.63" y2="184.38" stroke="#65d5ff" stroke-width="2"/>
<circle cx="973.98" cy="181.32" r="2.5" fill="#ffffff"/>
<circle cx="1023.63" cy="184.38" r="2.5" fill="#ffffff"/>
<text x="1002.80" y="178.85" fill="#65d5ff" font-family="monospace" font-size="11">2</text>
<line x1="992.93" y1="191.96" x2="1000.76" y2="145.00" stroke="#ffcc66" stroke-width="2"/>
<circle cx="992.93" cy="191.96" r="2.5" fill="#ffffff"/>
<circle cx="1000.76" cy="145.00" r="2.5" fill="#ffffff"/>
<text x="1000.85" y="164.48" fill="#ffcc66" font-family="monospace" font-size="11">3</text>
<line x1="1000.76" y1="145.00" x2="1000.03" y2="147.81" stroke="#65d5ff" stroke-width="2"/>
<circle cx="1000.76" cy="145.00" r="2.5" fill="#ffffff"/>
<circle cx="1000.03" cy="147.81" r="2.5" fill="#ffffff"/>
<text x="1004.39" y="142.41" fill="#65d5ff" font-family="monospace" font-size="11">4</text>
<line x1="1000.03" y1="147.81" x2="992.32" y2="194.65" stroke="#ffcc66" stroke-width="2"/>
<circle cx="1000.03" cy="147.81" r="2.5" fill="#ffffff"/>
<circle cx="992.32" cy="194.65" r="2.5" fill="#ffffff"/>
<text x="1000.18" y="167.23" fill="#ffcc66" font-family="monospace" font-size="11">5</text>
<line x1="992.32" y1="194.65" x2="992.93" y2="191.96" stroke="#65d5ff" stroke-width="2"/>
<circle cx="992.32" cy="194.65" r="2.5" fill="#ffffff"/>
<circle cx="992.93" cy="191.96" r="2.5" fill="#ffffff"/>
<text x="996.63" y="189.30" fill="#65d5ff" font-family="monospace" font-size="11">6</text>
<line x1="1022.89" y1="187.19" x2="973.25" y2="184.38" stroke="#ffcc66" stroke-width="2"/>
<circle cx="1022.89" cy="187.19" r="2.5" fill="#ffffff"/>
<circle cx="973.25" cy="184.38" r="2.5" fill="#ffffff"/>
<text x="1002.07" y="181.78" fill="#ffcc66" font-family="monospace" font-size="11">7</text>
<line x1="973.25" y1="184.38" x2="973.25" y2="184.25" stroke="#65d5ff" stroke-width="2"/>
<circle cx="973.25" cy="184.38" r="2.5" fill="#ffffff"/>
<circle cx="973.25" cy="184.25" r="2.5" fill="#ffffff"/>
<text x="977.25" y="180.31" fill="#65d5ff" font-family="monospace" font-size="11">8</text>
<line x1="973.25" y1="184.25" x2="1022.89" y2="187.19" stroke="#ffcc66" stroke-width="2"/>
<circle cx="973.25" cy="184.25" r="2.5" fill="#ffffff"/>
<circle cx="1022.89" cy="187.19" r="2.5" fill="#ffffff"/>
<text x="1002.07" y="181.72" fill="#ffcc66" font-family="monospace" font-size="11">9</text>
</svg>
