<svg xmlns="http://www.w3.org/2000/svg" width="1500" height="540" viewBox="0 0 1500 540">
<rect width="100%" height="100%" fill="#10151b"/>
<style>text{font-family:monospace;fill:#dbe7f3}.dim{fill:#9fb2c4}.axis{stroke:#506475}.point{fill:#ffcb6b}</style>
<text x="42" y="28" font-size="18">Runtime scene-placement diagnostic — X/Z plane; Y word is zero for every plotted record</text>
<rect x="42.0" y="68" width="410" height="410" fill="#161e27" stroke="#63788b"/>
<text x="52.0" y="92" font-size="15">run033_frame05250: 121 placements</text>
<line class="axis" x1="54.0" y1="466" x2="440.0" y2="466"/>
<line class="axis" x1="54.0" y1="80" x2="54.0" y2="466"/>
<circle class="point" cx="219.4" cy="231.6" r="2.4"><title>$C4E9AC $C2232C X=8192 Z=8192</title></circle>
<circle class="point" cx="252.2" cy="267.8" r="2.4"><title>$C4E9C4 $C22408 X=10624 Z=5504</title></circle>
<circle class="point" cx="252.2" cy="278.2" r="2.4"><title>$C4E9DC $C2241C X=10624 Z=4736</title></circle>
<circle class="point" cx="247.0" cy="259.2" r="2.4"><title>$C4E9F4 $C22804 X=10240 Z=6144</title></circle>
<circle class="point" cx="247.0" cy="369.5" r="2.4"><title>$C4EA0C $C2237C X=10240 Z=-2048</title></circle>
<circle class="point" cx="247.0" cy="314.4" r="2.4"><title>$C4EA24 $C22354 X=10240 Z=2048</title></circle>
<circle class="point" cx="274.6" cy="176.5" r="2.4"><title>$C4EA3C $C22818 X=12288 Z=12288</title></circle>
<circle class="point" cx="233.2" cy="190.3" r="2.4"><title>$C4EA54 $C22318 X=9216 Z=11264</title></circle>
<circle class="point" cx="233.2" cy="216.1" r="2.4"><title>$C4EA6C $C22584 X=9216 Z=9344</title></circle>
<circle class="point" cx="233.2" cy="216.1" r="2.4"><title>$C4EA84 $C22728 X=9216 Z=9344</title></circle>
<circle class="point" cx="234.1" cy="225.6" r="2.4"><title>$C4EA9C $C22430 X=9280 Z=8640</title></circle>
<circle class="point" cx="315.9" cy="190.3" r="2.4"><title>$C4EAB4 $C227F0 X=15360 Z=11264</title></circle>
<circle class="point" cx="274.6" cy="397.1" r="2.4"><title>$C4EACC $C22390 X=12288 Z=-4096</title></circle>
<circle class="point" cx="274.6" cy="286.8" r="2.4"><title>$C4EAE4 $C22368 X=12288 Z=4096</title></circle>
<circle class="point" cx="271.1" cy="262.7" r="2.4"><title>$C4EAFC $C22AAC X=12032 Z=5888</title></circle>
<circle class="point" cx="263.2" cy="254.7" r="2.4"><title>$C4EB14 $C22430 X=11440 Z=6480</title></circle>
<circle class="point" cx="253.5" cy="245.0" r="2.4"><title>$C4EB2C $C22430 X=10720 Z=7200</title></circle>
<circle class="point" cx="243.8" cy="235.3" r="2.4"><title>$C4EB44 $C22430 X=10000 Z=7920</title></circle>
<circle class="point" cx="202.8" cy="203.5" r="2.4"><title>$C4EB5C $C22458 X=6960 Z=10280</title></circle>
<circle class="point" cx="191.9" cy="200.0" r="2.4"><title>$C4EB74 $C2246C X=6144 Z=10544</title></circle>
<circle class="point" cx="190.8" cy="199.5" r="2.4"><title>$C4EB8C $C22480 X=6064 Z=10576</title></circle>
<circle class="point" cx="212.5" cy="207.5" r="2.4"><title>$C4EBA4 $C22444 X=7680 Z=9984</title></circle>
<circle class="point" cx="233.2" cy="80.0" r="2.4"><title>$C4EBBC $C22318 X=9216 Z=19456</title></circle>
<circle class="point" cx="233.2" cy="105.8" r="2.4"><title>$C4EBD4 $C22584 X=9216 Z=17536</title></circle>
<circle class="point" cx="233.2" cy="105.8" r="2.4"><title>$C4EBEC $C22728 X=9216 Z=17536</title></circle>
<circle class="point" cx="234.1" cy="115.3" r="2.4"><title>$C4EC04 $C22430 X=9280 Z=16832</title></circle>
<circle class="point" cx="212.5" cy="211.0" r="2.4"><title>$C4EC1C $C227F0 X=7680 Z=9728</title></circle>
<circle class="point" cx="247.0" cy="314.4" r="2.4"><title>$C4EC34 $C2237C X=10240 Z=2048</title></circle>
<circle class="point" cx="274.6" cy="176.5" r="2.4"><title>$C4EC4C $C22368 X=12288 Z=12288</title></circle>
<circle class="point" cx="271.1" cy="152.4" r="2.4"><title>$C4EC64 $C22AAC X=12032 Z=14080</title></circle>
<circle class="point" cx="263.2" cy="144.4" r="2.4"><title>$C4EC7C $C22430 X=11440 Z=14672</title></circle>
<circle class="point" cx="253.5" cy="134.7" r="2.4"><title>$C4EC94 $C22430 X=10720 Z=15392</title></circle>
<circle class="point" cx="243.8" cy="125.0" r="2.4"><title>$C4ECAC $C22430 X=10000 Z=16112</title></circle>
<circle class="point" cx="202.8" cy="93.2" r="2.4"><title>$C4ECC4 $C22458 X=6960 Z=18472</title></circle>
<circle class="point" cx="191.9" cy="89.7" r="2.4"><title>$C4ECDC $C2246C X=6144 Z=18736</title></circle>
<circle class="point" cx="190.8" cy="89.3" r="2.4"><title>$C4ECF4 $C22480 X=6064 Z=18768</title></circle>
<circle class="point" cx="212.5" cy="97.2" r="2.4"><title>$C4ED0C $C22444 X=7680 Z=18176</title></circle>
<circle class="point" cx="274.6" cy="286.8" r="2.4"><title>$C4ED24 $C22390 X=12288 Z=4096</title></circle>
<circle class="point" cx="157.4" cy="211.0" r="2.4"><title>$C4ED3C $C22700 X=3584 Z=9728</title></circle>
<circle class="point" cx="136.7" cy="135.1" r="2.4"><title>$C4ED54 $C2232C X=2048 Z=15360</title></circle>
<circle class="point" cx="219.4" cy="80.0" r="2.4"><title>$C4ED6C $C227F0 X=8192 Z=19456</title></circle>
<circle class="point" cx="110.9" cy="273.0" r="2.4"><title>$C4ED84 $C225FC X=128 Z=5120</title></circle>
<circle class="point" cx="128.5" cy="301.0" r="2.4"><title>$C4ED9C $C225E8 X=1440 Z=3040</title></circle>
<circle class="point" cx="112.2" cy="314.8" r="2.4"><title>$C4EDB4 $C22624 X=224 Z=2016</title></circle>
<circle class="point" cx="122.7" cy="306.0" r="2.4"><title>$C4EDCC $C226C4 X=1004 Z=2672</title></circle>
<circle class="point" cx="132.8" cy="297.4" r="2.4"><title>$C4EDE4 $C226C4 X=1756 Z=3306</title></circle>
<circle class="point" cx="176.6" cy="235.9" r="2.4"><title>$C4EDFC $C22610 X=5012 Z=7876</title></circle>
<circle class="point" cx="122.9" cy="250.3" r="2.4"><title>$C4EE14 $C22688 X=1020 Z=6806</title></circle>
<circle class="point" cx="121.3" cy="255.1" r="2.4"><title>$C4EE2C $C226EC X=900 Z=6450</title></circle>
<circle class="point" cx="119.8" cy="259.9" r="2.4"><title>$C4EE44 $C2269C X=792 Z=6096</title></circle>
<circle class="point" cx="122.8" cy="271.0" r="2.4"><title>$C4EE5C $C2264C X=1014 Z=5272</title></circle>
<circle class="point" cx="115.1" cy="268.2" r="2.4"><title>$C4EE74 $C22638 X=442 Z=5474</title></circle>
<circle class="point" cx="113.2" cy="274.5" r="2.4"><title>$C4EE8C $C226D8 X=302 Z=5012</title></circle>
<circle class="point" cx="109.0" cy="340.9" r="2.4"><title>$C4EEA4 $C22674 X=-9 Z=80</title></circle>
<circle class="point" cx="109.6" cy="338.7" r="2.4"><title>$C4EEBC $C2232C X=32 Z=240</title></circle>
<circle class="point" cx="110.0" cy="339.9" r="2.4"><title>$C4EED4 $C227F0 X=64 Z=152</title></circle>
<circle class="point" cx="109.2" cy="340.9" r="2.4"><title>$C4EEEC $C225FC X=2 Z=80</title></circle>
<circle class="point" cx="109.4" cy="341.3" r="2.4"><title>$C4EF04 $C225E8 X=22 Z=47</title></circle>
<circle class="point" cx="109.2" cy="341.5" r="2.4"><title>$C4EF1C $C22624 X=3 Z=31</title></circle>
<circle class="point" cx="109.3" cy="341.4" r="2.4"><title>$C4EF34 $C226C4 X=15 Z=41</title></circle>
<circle class="point" cx="109.5" cy="341.2" r="2.4"><title>$C4EF4C $C226C4 X=27 Z=51</title></circle>
<circle class="point" cx="109.7" cy="341.1" r="2.4"><title>$C4EF64 $C22610 X=39 Z=61</title></circle>
<circle class="point" cx="109.3" cy="340.5" r="2.4"><title>$C4EF7C $C22688 X=15 Z=106</title></circle>
<circle class="point" cx="109.3" cy="340.6" r="2.4"><title>$C4EF94 $C226EC X=14 Z=100</title></circle>
<circle class="point" cx="109.3" cy="340.6" r="2.4"><title>$C4EFAC $C2269C X=12 Z=95</title></circle>
<circle class="point" cx="109.3" cy="340.8" r="2.4"><title>$C4EFC4 $C2264C X=15 Z=82</title></circle>
<circle class="point" cx="109.2" cy="340.8" r="2.4"><title>$C4EFDC $C22638 X=6 Z=85</title></circle>
<circle class="point" cx="109.2" cy="340.9" r="2.4"><title>$C4EFF4 $C226D8 X=4 Z=78</title></circle>
<circle class="point" cx="139.1" cy="395.1" r="2.4"><title>$C4F00C $C22494 X=2224 Z=-3952</title></circle>
<circle class="point" cx="315.9" cy="466.0" r="2.4"><title>$C4F03C $C224D0 X=15360 Z=-9216</title></circle>
<circle class="point" cx="191.9" cy="424.6" r="2.4"><title>$C4F054 $C22A48 X=6144 Z=-6144</title></circle>
<circle class="point" cx="257.3" cy="255.8" r="2.4"><title>$C4F06C $C22700 X=11008 Z=6400</title></circle>
<circle class="point" cx="228.5" cy="217.9" r="2.4"><title>$C4F084 $C22700 X=8864 Z=9216</title></circle>
<circle class="point" cx="285.8" cy="231.6" r="2.4"><title>$C4F09C $C22764 X=13120 Z=8192</title></circle>
<circle class="point" cx="274.6" cy="397.1" r="2.4"><title>$C4F0B4 $C22A98 X=12288 Z=-4096</title></circle>
<circle class="point" cx="257.6" cy="269.6" r="2.4"><title>$C4F0CC $C22778 X=11024 Z=5376</title></circle>
<circle class="point" cx="274.6" cy="314.4" r="2.4"><title>$C4F0E4 $C22A84 X=12288 Z=2048</title></circle>
<circle class="point" cx="136.7" cy="204.1" r="2.4"><title>$C4F0FC $C22A34 X=2048 Z=10240</title></circle>
<circle class="point" cx="274.6" cy="204.1" r="2.4"><title>$C4F114 $C22A84 X=12288 Z=10240</title></circle>
<circle class="point" cx="136.7" cy="93.8" r="2.4"><title>$C4F12C $C22A34 X=2048 Z=18432</title></circle>
<circle class="point" cx="274.6" cy="286.8" r="2.4"><title>$C4F144 $C22A98 X=12288 Z=4096</title></circle>
<circle class="point" cx="247.0" cy="314.4" r="2.4"><title>$C4F15C $C22A98 X=10240 Z=2048</title></circle>
<circle class="point" cx="164.3" cy="176.5" r="2.4"><title>$C4F174 $C229F8 X=4096 Z=12288</title></circle>
<circle class="point" cx="107.0" cy="344.1" r="2.4"><title>$C4F18C $C22958 X=-160 Z=-160</title></circle>
<circle class="point" cx="105.7" cy="344.1" r="2.4"><title>$C4F1A4 $C2296C X=-256 Z=-160</title></circle>
<circle class="point" cx="105.3" cy="344.9" r="2.4"><title>$C4F1BC $C22980 X=-288 Z=-224</title></circle>
<circle class="point" cx="106.6" cy="342.8" r="2.4"><title>$C4F1D4 $C2291C X=-192 Z=-64</title></circle>
<circle class="point" cx="106.1" cy="343.7" r="2.4"><title>$C4F1EC $C22930 X=-224 Z=-128</title></circle>
<circle class="point" cx="103.1" cy="348.0" r="2.4"><title>$C4F204 $C229BC X=-448 Z=-448</title></circle>
<circle class="point" cx="113.5" cy="341.1" r="2.4"><title>$C4F21C $C22A98 X=320 Z=64</title></circle>
<circle class="point" cx="113.2" cy="339.1" r="2.4"><title>$C4F234 $C22778 X=300 Z=212</title></circle>
<circle class="point" cx="113.5" cy="339.8" r="2.4"><title>$C4F24C $C22A84 X=320 Z=160</title></circle>
<circle class="point" cx="115.5" cy="337.5" r="2.4"><title>$C4F264 $C22700 X=472 Z=328</title></circle>
<circle class="point" cx="112.7" cy="338.3" r="2.4"><title>$C4F27C $C22700 X=266 Z=272</title></circle>
<circle class="point" cx="113.6" cy="338.5" r="2.4"><title>$C4F294 $C22764 X=333 Z=256</title></circle>
<circle class="point" cx="111.3" cy="338.1" r="2.4"><title>$C4F2AC $C22A34 X=160 Z=288</title></circle>
<circle class="point" cx="108.7" cy="339.8" r="2.4"><title>$C4F2C4 $C22A0C X=-32 Z=160</title></circle>
<circle class="point" cx="108.3" cy="341.1" r="2.4"><title>$C4F2DC $C22A20 X=-64 Z=64</title></circle>
<circle class="point" cx="110.0" cy="339.3" r="2.4"><title>$C4F2F4 $C229F8 X=64 Z=192</title></circle>
<circle class="point" cx="54.0" cy="355.7" r="2.4"><title>$C4F30C $C22944 X=-4096 Z=-1024</title></circle>
<circle class="point" cx="150.5" cy="424.6" r="2.4"><title>$C4F324 $C2287C X=3072 Z=-6144</title></circle>
<circle class="point" cx="109.1" cy="355.7" r="2.4"><title>$C4F33C $C22944 X=0 Z=-1024</title></circle>
<circle class="point" cx="298.7" cy="228.2" r="2.4"><title>$C4F6CC $C22548 X=14080 Z=8448</title></circle>
<circle class="point" cx="228.5" cy="217.9" r="2.4"><title>$C4F6E4 $C22700 X=8864 Z=9216</title></circle>
<circle class="point" cx="234.1" cy="225.6" r="2.4"><title>$C4F6FC $C22430 X=9280 Z=8640</title></circle>
<circle class="point" cx="191.9" cy="200.0" r="2.4"><title>$C4F714 $C2246C X=6144 Z=10544</title></circle>
<circle class="point" cx="202.8" cy="203.5" r="2.4"><title>$C4F72C $C22458 X=6960 Z=10280</title></circle>
<circle class="point" cx="190.8" cy="199.5" r="2.4"><title>$C4F744 $C22480 X=6064 Z=10576</title></circle>
<circle class="point" cx="212.5" cy="207.5" r="2.4"><title>$C4F75C $C22444 X=7680 Z=9984</title></circle>
<circle class="point" cx="305.6" cy="258.8" r="2.4"><title>$C4F774 $C2250C X=14592 Z=6176</title></circle>
<circle class="point" cx="302.6" cy="252.3" r="2.4"><title>$C4F78C $C2250C X=14368 Z=6656</title></circle>
<circle class="point" cx="322.8" cy="273.0" r="2.4"><title>$C4F7A4 $C2250C X=15872 Z=5120</title></circle>
<circle class="point" cx="305.6" cy="266.1" r="2.4"><title>$C4F7BC $C2250C X=14592 Z=5632</title></circle>
<circle class="point" cx="288.4" cy="245.4" r="2.4"><title>$C4F7D4 $C22520 X=13312 Z=7168</title></circle>
<circle class="point" cx="291.8" cy="254.0" r="2.4"><title>$C4F7EC $C22534 X=13568 Z=6528</title></circle>
<circle class="point" cx="276.3" cy="245.0" r="2.4"><title>$C4F804 $C2250C X=12416 Z=7200</title></circle>
<circle class="point" cx="263.2" cy="254.7" r="2.4"><title>$C4F81C $C22430 X=11440 Z=6480</title></circle>
<circle class="point" cx="253.5" cy="245.0" r="2.4"><title>$C4F834 $C22430 X=10720 Z=7200</title></circle>
<circle class="point" cx="270.0" cy="261.2" r="2.4"><title>$C4F84C $C22AAC X=11947 Z=5993</title></circle>
<circle class="point" cx="243.8" cy="235.3" r="2.4"><title>$C4F864 $C22430 X=10000 Z=7920</title></circle>
<circle class="point" cx="219.4" cy="286.8" r="2.4"><title>$C4F87C $C22188 X=8192 Z=4096</title></circle>
<text class="dim" x="52.0" y="506" font-size="13">X [-4096, 15872], Z [-9216, 19456]</text>
<rect x="514.0" y="68" width="410" height="410" fill="#161e27" stroke="#63788b"/>
<text x="524.0" y="92" font-size="15">run033_frame05500: 123 placements</text>
<line class="axis" x1="526.0" y1="466" x2="912.0" y2="466"/>
<line class="axis" x1="526.0" y1="80" x2="526.0" y2="466"/>
<circle class="point" cx="691.4" cy="231.6" r="2.4"><title>$C4E9AC $C2232C X=8192 Z=8192</title></circle>
<circle class="point" cx="724.2" cy="267.8" r="2.4"><title>$C4E9C4 $C22408 X=10624 Z=5504</title></circle>
<circle class="point" cx="724.2" cy="278.2" r="2.4"><title>$C4E9DC $C2241C X=10624 Z=4736</title></circle>
<circle class="point" cx="719.0" cy="259.2" r="2.4"><title>$C4E9F4 $C22804 X=10240 Z=6144</title></circle>
<circle class="point" cx="719.0" cy="369.5" r="2.4"><title>$C4EA0C $C2237C X=10240 Z=-2048</title></circle>
<circle class="point" cx="719.0" cy="314.4" r="2.4"><title>$C4EA24 $C22354 X=10240 Z=2048</title></circle>
<circle class="point" cx="746.6" cy="176.5" r="2.4"><title>$C4EA3C $C22818 X=12288 Z=12288</title></circle>
<circle class="point" cx="705.2" cy="190.3" r="2.4"><title>$C4EA54 $C22318 X=9216 Z=11264</title></circle>
<circle class="point" cx="705.2" cy="216.1" r="2.4"><title>$C4EA6C $C22584 X=9216 Z=9344</title></circle>
<circle class="point" cx="705.2" cy="216.1" r="2.4"><title>$C4EA84 $C22728 X=9216 Z=9344</title></circle>
<circle class="point" cx="706.1" cy="225.6" r="2.4"><title>$C4EA9C $C22430 X=9280 Z=8640</title></circle>
<circle class="point" cx="787.9" cy="190.3" r="2.4"><title>$C4EAB4 $C227F0 X=15360 Z=11264</title></circle>
<circle class="point" cx="746.6" cy="397.1" r="2.4"><title>$C4EACC $C22390 X=12288 Z=-4096</title></circle>
<circle class="point" cx="746.6" cy="286.8" r="2.4"><title>$C4EAE4 $C22368 X=12288 Z=4096</title></circle>
<circle class="point" cx="743.1" cy="262.7" r="2.4"><title>$C4EAFC $C22AAC X=12032 Z=5888</title></circle>
<circle class="point" cx="735.2" cy="254.7" r="2.4"><title>$C4EB14 $C22430 X=11440 Z=6480</title></circle>
<circle class="point" cx="725.5" cy="245.0" r="2.4"><title>$C4EB2C $C22430 X=10720 Z=7200</title></circle>
<circle class="point" cx="715.8" cy="235.3" r="2.4"><title>$C4EB44 $C22430 X=10000 Z=7920</title></circle>
<circle class="point" cx="674.8" cy="203.5" r="2.4"><title>$C4EB5C $C22458 X=6960 Z=10280</title></circle>
<circle class="point" cx="663.9" cy="200.0" r="2.4"><title>$C4EB74 $C2246C X=6144 Z=10544</title></circle>
<circle class="point" cx="662.8" cy="199.5" r="2.4"><title>$C4EB8C $C22480 X=6064 Z=10576</title></circle>
<circle class="point" cx="684.5" cy="207.5" r="2.4"><title>$C4EBA4 $C22444 X=7680 Z=9984</title></circle>
<circle class="point" cx="705.2" cy="80.0" r="2.4"><title>$C4EBBC $C22318 X=9216 Z=19456</title></circle>
<circle class="point" cx="705.2" cy="105.8" r="2.4"><title>$C4EBD4 $C22584 X=9216 Z=17536</title></circle>
<circle class="point" cx="705.2" cy="105.8" r="2.4"><title>$C4EBEC $C22728 X=9216 Z=17536</title></circle>
<circle class="point" cx="706.1" cy="115.3" r="2.4"><title>$C4EC04 $C22430 X=9280 Z=16832</title></circle>
<circle class="point" cx="684.5" cy="211.0" r="2.4"><title>$C4EC1C $C227F0 X=7680 Z=9728</title></circle>
<circle class="point" cx="719.0" cy="314.4" r="2.4"><title>$C4EC34 $C2237C X=10240 Z=2048</title></circle>
<circle class="point" cx="746.6" cy="176.5" r="2.4"><title>$C4EC4C $C22368 X=12288 Z=12288</title></circle>
<circle class="point" cx="743.1" cy="152.4" r="2.4"><title>$C4EC64 $C22AAC X=12032 Z=14080</title></circle>
<circle class="point" cx="735.2" cy="144.4" r="2.4"><title>$C4EC7C $C22430 X=11440 Z=14672</title></circle>
<circle class="point" cx="725.5" cy="134.7" r="2.4"><title>$C4EC94 $C22430 X=10720 Z=15392</title></circle>
<circle class="point" cx="715.8" cy="125.0" r="2.4"><title>$C4ECAC $C22430 X=10000 Z=16112</title></circle>
<circle class="point" cx="674.8" cy="93.2" r="2.4"><title>$C4ECC4 $C22458 X=6960 Z=18472</title></circle>
<circle class="point" cx="663.9" cy="89.7" r="2.4"><title>$C4ECDC $C2246C X=6144 Z=18736</title></circle>
<circle class="point" cx="662.8" cy="89.3" r="2.4"><title>$C4ECF4 $C22480 X=6064 Z=18768</title></circle>
<circle class="point" cx="684.5" cy="97.2" r="2.4"><title>$C4ED0C $C22444 X=7680 Z=18176</title></circle>
<circle class="point" cx="746.6" cy="286.8" r="2.4"><title>$C4ED24 $C22390 X=12288 Z=4096</title></circle>
<circle class="point" cx="629.4" cy="211.0" r="2.4"><title>$C4ED3C $C22700 X=3584 Z=9728</title></circle>
<circle class="point" cx="608.7" cy="135.1" r="2.4"><title>$C4ED54 $C2232C X=2048 Z=15360</title></circle>
<circle class="point" cx="691.4" cy="80.0" r="2.4"><title>$C4ED6C $C227F0 X=8192 Z=19456</title></circle>
<circle class="point" cx="582.9" cy="273.0" r="2.4"><title>$C4ED84 $C225FC X=128 Z=5120</title></circle>
<circle class="point" cx="600.5" cy="301.0" r="2.4"><title>$C4ED9C $C225E8 X=1440 Z=3040</title></circle>
<circle class="point" cx="584.2" cy="314.8" r="2.4"><title>$C4EDB4 $C22624 X=224 Z=2016</title></circle>
<circle class="point" cx="594.7" cy="306.0" r="2.4"><title>$C4EDCC $C226C4 X=1004 Z=2672</title></circle>
<circle class="point" cx="604.8" cy="297.4" r="2.4"><title>$C4EDE4 $C226C4 X=1756 Z=3306</title></circle>
<circle class="point" cx="648.6" cy="235.9" r="2.4"><title>$C4EDFC $C22610 X=5012 Z=7876</title></circle>
<circle class="point" cx="594.9" cy="250.3" r="2.4"><title>$C4EE14 $C22688 X=1020 Z=6806</title></circle>
<circle class="point" cx="593.3" cy="255.1" r="2.4"><title>$C4EE2C $C226EC X=900 Z=6450</title></circle>
<circle class="point" cx="591.8" cy="259.9" r="2.4"><title>$C4EE44 $C2269C X=792 Z=6096</title></circle>
<circle class="point" cx="594.8" cy="271.0" r="2.4"><title>$C4EE5C $C2264C X=1014 Z=5272</title></circle>
<circle class="point" cx="587.1" cy="268.2" r="2.4"><title>$C4EE74 $C22638 X=442 Z=5474</title></circle>
<circle class="point" cx="585.2" cy="274.5" r="2.4"><title>$C4EE8C $C226D8 X=302 Z=5012</title></circle>
<circle class="point" cx="581.0" cy="340.9" r="2.4"><title>$C4EEA4 $C22674 X=-9 Z=80</title></circle>
<circle class="point" cx="581.6" cy="338.7" r="2.4"><title>$C4EEBC $C2232C X=32 Z=240</title></circle>
<circle class="point" cx="582.0" cy="339.9" r="2.4"><title>$C4EED4 $C227F0 X=64 Z=152</title></circle>
<circle class="point" cx="581.2" cy="340.9" r="2.4"><title>$C4EEEC $C225FC X=2 Z=80</title></circle>
<circle class="point" cx="581.4" cy="341.3" r="2.4"><title>$C4EF04 $C225E8 X=22 Z=47</title></circle>
<circle class="point" cx="581.2" cy="341.5" r="2.4"><title>$C4EF1C $C22624 X=3 Z=31</title></circle>
<circle class="point" cx="581.3" cy="341.4" r="2.4"><title>$C4EF34 $C226C4 X=15 Z=41</title></circle>
<circle class="point" cx="581.5" cy="341.2" r="2.4"><title>$C4EF4C $C226C4 X=27 Z=51</title></circle>
<circle class="point" cx="581.7" cy="341.1" r="2.4"><title>$C4EF64 $C22610 X=39 Z=61</title></circle>
<circle class="point" cx="581.3" cy="340.5" r="2.4"><title>$C4EF7C $C22688 X=15 Z=106</title></circle>
<circle class="point" cx="581.3" cy="340.6" r="2.4"><title>$C4EF94 $C226EC X=14 Z=100</title></circle>
<circle class="point" cx="581.3" cy="340.6" r="2.4"><title>$C4EFAC $C2269C X=12 Z=95</title></circle>
<circle class="point" cx="581.3" cy="340.8" r="2.4"><title>$C4EFC4 $C2264C X=15 Z=82</title></circle>
<circle class="point" cx="581.2" cy="340.8" r="2.4"><title>$C4EFDC $C22638 X=6 Z=85</title></circle>
<circle class="point" cx="581.2" cy="340.9" r="2.4"><title>$C4EFF4 $C226D8 X=4 Z=78</title></circle>
<circle class="point" cx="611.1" cy="395.1" r="2.4"><title>$C4F00C $C22494 X=2224 Z=-3952</title></circle>
<circle class="point" cx="787.9" cy="466.0" r="2.4"><title>$C4F03C $C224D0 X=15360 Z=-9216</title></circle>
<circle class="point" cx="663.9" cy="424.6" r="2.4"><title>$C4F054 $C22A48 X=6144 Z=-6144</title></circle>
<circle class="point" cx="729.3" cy="255.8" r="2.4"><title>$C4F06C $C22700 X=11008 Z=6400</title></circle>
<circle class="point" cx="700.5" cy="217.9" r="2.4"><title>$C4F084 $C22700 X=8864 Z=9216</title></circle>
<circle class="point" cx="757.8" cy="231.6" r="2.4"><title>$C4F09C $C22764 X=13120 Z=8192</title></circle>
<circle class="point" cx="746.6" cy="397.1" r="2.4"><title>$C4F0B4 $C22A98 X=12288 Z=-4096</title></circle>
<circle class="point" cx="729.6" cy="269.6" r="2.4"><title>$C4F0CC $C22778 X=11024 Z=5376</title></circle>
<circle class="point" cx="746.6" cy="314.4" r="2.4"><title>$C4F0E4 $C22A84 X=12288 Z=2048</title></circle>
<circle class="point" cx="608.7" cy="204.1" r="2.4"><title>$C4F0FC $C22A34 X=2048 Z=10240</title></circle>
<circle class="point" cx="746.6" cy="204.1" r="2.4"><title>$C4F114 $C22A84 X=12288 Z=10240</title></circle>
<circle class="point" cx="608.7" cy="93.8" r="2.4"><title>$C4F12C $C22A34 X=2048 Z=18432</title></circle>
<circle class="point" cx="746.6" cy="286.8" r="2.4"><title>$C4F144 $C22A98 X=12288 Z=4096</title></circle>
<circle class="point" cx="719.0" cy="314.4" r="2.4"><title>$C4F15C $C22A98 X=10240 Z=2048</title></circle>
<circle class="point" cx="636.3" cy="176.5" r="2.4"><title>$C4F174 $C229F8 X=4096 Z=12288</title></circle>
<circle class="point" cx="579.0" cy="344.1" r="2.4"><title>$C4F18C $C22958 X=-160 Z=-160</title></circle>
<circle class="point" cx="577.7" cy="344.1" r="2.4"><title>$C4F1A4 $C2296C X=-256 Z=-160</title></circle>
<circle class="point" cx="577.3" cy="344.9" r="2.4"><title>$C4F1BC $C22980 X=-288 Z=-224</title></circle>
<circle class="point" cx="578.6" cy="342.8" r="2.4"><title>$C4F1D4 $C2291C X=-192 Z=-64</title></circle>
<circle class="point" cx="578.1" cy="343.7" r="2.4"><title>$C4F1EC $C22930 X=-224 Z=-128</title></circle>
<circle class="point" cx="575.1" cy="348.0" r="2.4"><title>$C4F204 $C229BC X=-448 Z=-448</title></circle>
<circle class="point" cx="585.5" cy="341.1" r="2.4"><title>$C4F21C $C22A98 X=320 Z=64</title></circle>
<circle class="point" cx="585.2" cy="339.1" r="2.4"><title>$C4F234 $C22778 X=300 Z=212</title></circle>
<circle class="point" cx="585.5" cy="339.8" r="2.4"><title>$C4F24C $C22A84 X=320 Z=160</title></circle>
<circle class="point" cx="587.5" cy="337.5" r="2.4"><title>$C4F264 $C22700 X=472 Z=328</title></circle>
<circle class="point" cx="584.7" cy="338.3" r="2.4"><title>$C4F27C $C22700 X=266 Z=272</title></circle>
<circle class="point" cx="585.6" cy="338.5" r="2.4"><title>$C4F294 $C22764 X=333 Z=256</title></circle>
<circle class="point" cx="583.3" cy="338.1" r="2.4"><title>$C4F2AC $C22A34 X=160 Z=288</title></circle>
<circle class="point" cx="580.7" cy="339.8" r="2.4"><title>$C4F2C4 $C22A0C X=-32 Z=160</title></circle>
<circle class="point" cx="580.3" cy="341.1" r="2.4"><title>$C4F2DC $C22A20 X=-64 Z=64</title></circle>
<circle class="point" cx="582.0" cy="339.3" r="2.4"><title>$C4F2F4 $C229F8 X=64 Z=192</title></circle>
<circle class="point" cx="526.0" cy="355.7" r="2.4"><title>$C4F30C $C22944 X=-4096 Z=-1024</title></circle>
<circle class="point" cx="622.5" cy="424.6" r="2.4"><title>$C4F324 $C2287C X=3072 Z=-6144</title></circle>
<circle class="point" cx="581.1" cy="355.7" r="2.4"><title>$C4F33C $C22944 X=0 Z=-1024</title></circle>
<circle class="point" cx="790.5" cy="187.7" r="2.4"><title>$C4F6CC $C22548 X=15552 Z=11456</title></circle>
<circle class="point" cx="787.1" cy="190.7" r="2.4"><title>$C4F6E4 $C22750 X=15296 Z=11232</title></circle>
<circle class="point" cx="783.6" cy="193.3" r="2.4"><title>$C4F6FC $C22548 X=15040 Z=11040</title></circle>
<circle class="point" cx="770.7" cy="228.2" r="2.4"><title>$C4F714 $C22548 X=14080 Z=8448</title></circle>
<circle class="point" cx="700.5" cy="217.9" r="2.4"><title>$C4F72C $C22700 X=8864 Z=9216</title></circle>
<circle class="point" cx="706.1" cy="225.6" r="2.4"><title>$C4F744 $C22430 X=9280 Z=8640</title></circle>
<circle class="point" cx="663.9" cy="200.0" r="2.4"><title>$C4F75C $C2246C X=6144 Z=10544</title></circle>
<circle class="point" cx="674.8" cy="203.5" r="2.4"><title>$C4F774 $C22458 X=6960 Z=10280</title></circle>
<circle class="point" cx="684.5" cy="207.5" r="2.4"><title>$C4F78C $C22444 X=7680 Z=9984</title></circle>
<circle class="point" cx="777.6" cy="258.8" r="2.4"><title>$C4F7A4 $C2250C X=14592 Z=6176</title></circle>
<circle class="point" cx="774.6" cy="252.3" r="2.4"><title>$C4F7BC $C2250C X=14368 Z=6656</title></circle>
<circle class="point" cx="794.8" cy="273.0" r="2.4"><title>$C4F7D4 $C2250C X=15872 Z=5120</title></circle>
<circle class="point" cx="777.6" cy="266.1" r="2.4"><title>$C4F7EC $C2250C X=14592 Z=5632</title></circle>
<circle class="point" cx="760.4" cy="245.4" r="2.4"><title>$C4F804 $C22520 X=13312 Z=7168</title></circle>
<circle class="point" cx="763.8" cy="254.0" r="2.4"><title>$C4F81C $C22534 X=13568 Z=6528</title></circle>
<circle class="point" cx="748.3" cy="245.0" r="2.4"><title>$C4F834 $C2250C X=12416 Z=7200</title></circle>
<circle class="point" cx="735.2" cy="254.7" r="2.4"><title>$C4F84C $C22430 X=11440 Z=6480</title></circle>
<circle class="point" cx="725.5" cy="245.0" r="2.4"><title>$C4F864 $C22430 X=10720 Z=7200</title></circle>
<circle class="point" cx="742.0" cy="261.2" r="2.4"><title>$C4F87C $C22AAC X=11947 Z=5993</title></circle>
<circle class="point" cx="715.8" cy="235.3" r="2.4"><title>$C4F894 $C22430 X=10000 Z=7920</title></circle>
<circle class="point" cx="746.6" cy="286.8" r="2.4"><title>$C4F8AC $C22188 X=12288 Z=4096</title></circle>
<text class="dim" x="524.0" y="506" font-size="13">X [-4096, 15872], Z [-9216, 19456]</text>
<rect x="986.0" y="68" width="410" height="410" fill="#161e27" stroke="#63788b"/>
<text x="996.0" y="92" font-size="15">run033_frame06250: 123 placements</text>
<line class="axis" x1="998.0" y1="466" x2="1384.0" y2="466"/>
<line class="axis" x1="998.0" y1="80" x2="998.0" y2="466"/>
<circle class="point" cx="1163.4" cy="121.4" r="2.4"><title>$C4E9AC $C2232C X=8192 Z=16384</title></circle>
<circle class="point" cx="1228.9" cy="193.7" r="2.4"><title>$C4E9C4 $C22408 X=13056 Z=11008</title></circle>
<circle class="point" cx="1228.9" cy="214.4" r="2.4"><title>$C4E9DC $C2241C X=13056 Z=9472</title></circle>
<circle class="point" cx="1218.6" cy="176.5" r="2.4"><title>$C4E9F4 $C22804 X=12288 Z=12288</title></circle>
<circle class="point" cx="1218.6" cy="397.1" r="2.4"><title>$C4EA0C $C2237C X=12288 Z=-4096</title></circle>
<circle class="point" cx="1108.3" cy="176.5" r="2.4"><title>$C4EA24 $C22818 X=4096 Z=12288</title></circle>
<circle class="point" cx="1066.9" cy="190.3" r="2.4"><title>$C4EA3C $C22318 X=1024 Z=11264</title></circle>
<circle class="point" cx="1080.7" cy="90.3" r="2.4"><title>$C4EA54 $C22584 X=2048 Z=18688</title></circle>
<circle class="point" cx="1080.7" cy="90.3" r="2.4"><title>$C4EA6C $C22728 X=2048 Z=18688</title></circle>
<circle class="point" cx="1082.4" cy="109.3" r="2.4"><title>$C4EA84 $C22430 X=2176 Z=17280</title></circle>
<circle class="point" cx="1149.6" cy="190.3" r="2.4"><title>$C4EA9C $C227F0 X=7168 Z=11264</title></circle>
<circle class="point" cx="1218.6" cy="286.8" r="2.4"><title>$C4EAB4 $C22354 X=12288 Z=4096</title></circle>
<circle class="point" cx="1108.3" cy="397.1" r="2.4"><title>$C4EACC $C22390 X=4096 Z=-4096</title></circle>
<circle class="point" cx="1163.4" cy="231.6" r="2.4"><title>$C4EAE4 $C22368 X=8192 Z=8192</title></circle>
<circle class="point" cx="1156.5" cy="183.4" r="2.4"><title>$C4EAFC $C22AAC X=7680 Z=11776</title></circle>
<circle class="point" cx="1140.6" cy="167.5" r="2.4"><title>$C4EB14 $C22430 X=6496 Z=12960</title></circle>
<circle class="point" cx="1121.2" cy="148.1" r="2.4"><title>$C4EB2C $C22430 X=5056 Z=14400</title></circle>
<circle class="point" cx="1101.8" cy="128.7" r="2.4"><title>$C4EB44 $C22430 X=3616 Z=15840</title></circle>
<circle class="point" cx="1146.8" cy="203.5" r="2.4"><title>$C4EB5C $C22458 X=6960 Z=10280</title></circle>
<circle class="point" cx="1135.9" cy="200.0" r="2.4"><title>$C4EB74 $C2246C X=6144 Z=10544</title></circle>
<circle class="point" cx="1134.8" cy="199.5" r="2.4"><title>$C4EB8C $C22480 X=6064 Z=10576</title></circle>
<circle class="point" cx="1156.5" cy="207.5" r="2.4"><title>$C4EBA4 $C22444 X=7680 Z=9984</title></circle>
<circle class="point" cx="1177.2" cy="80.0" r="2.4"><title>$C4EBBC $C22318 X=9216 Z=19456</title></circle>
<circle class="point" cx="1177.2" cy="105.8" r="2.4"><title>$C4EBD4 $C22584 X=9216 Z=17536</title></circle>
<circle class="point" cx="1177.2" cy="105.8" r="2.4"><title>$C4EBEC $C22728 X=9216 Z=17536</title></circle>
<circle class="point" cx="1178.1" cy="115.3" r="2.4"><title>$C4EC04 $C22430 X=9280 Z=16832</title></circle>
<circle class="point" cx="1156.5" cy="211.0" r="2.4"><title>$C4EC1C $C227F0 X=7680 Z=9728</title></circle>
<circle class="point" cx="1191.0" cy="314.4" r="2.4"><title>$C4EC34 $C2237C X=10240 Z=2048</title></circle>
<circle class="point" cx="1218.6" cy="176.5" r="2.4"><title>$C4EC4C $C22368 X=12288 Z=12288</title></circle>
<circle class="point" cx="1215.1" cy="152.4" r="2.4"><title>$C4EC64 $C22AAC X=12032 Z=14080</title></circle>
<circle class="point" cx="1207.2" cy="144.4" r="2.4"><title>$C4EC7C $C22430 X=11440 Z=14672</title></circle>
<circle class="point" cx="1197.5" cy="134.7" r="2.4"><title>$C4EC94 $C22430 X=10720 Z=15392</title></circle>
<circle class="point" cx="1187.8" cy="125.0" r="2.4"><title>$C4ECAC $C22430 X=10000 Z=16112</title></circle>
<circle class="point" cx="1146.8" cy="93.2" r="2.4"><title>$C4ECC4 $C22458 X=6960 Z=18472</title></circle>
<circle class="point" cx="1135.9" cy="89.7" r="2.4"><title>$C4ECDC $C2246C X=6144 Z=18736</title></circle>
<circle class="point" cx="1134.8" cy="89.3" r="2.4"><title>$C4ECF4 $C22480 X=6064 Z=18768</title></circle>
<circle class="point" cx="1156.5" cy="97.2" r="2.4"><title>$C4ED0C $C22444 X=7680 Z=18176</title></circle>
<circle class="point" cx="1218.6" cy="286.8" r="2.4"><title>$C4ED24 $C22390 X=12288 Z=4096</title></circle>
<circle class="point" cx="1101.4" cy="211.0" r="2.4"><title>$C4ED3C $C22700 X=3584 Z=9728</title></circle>
<circle class="point" cx="1080.7" cy="135.1" r="2.4"><title>$C4ED54 $C2232C X=2048 Z=15360</title></circle>
<circle class="point" cx="1163.4" cy="80.0" r="2.4"><title>$C4ED6C $C227F0 X=8192 Z=19456</title></circle>
<circle class="point" cx="1054.9" cy="273.0" r="2.4"><title>$C4ED84 $C225FC X=128 Z=5120</title></circle>
<circle class="point" cx="1072.5" cy="301.0" r="2.4"><title>$C4ED9C $C225E8 X=1440 Z=3040</title></circle>
<circle class="point" cx="1056.2" cy="314.8" r="2.4"><title>$C4EDB4 $C22624 X=224 Z=2016</title></circle>
<circle class="point" cx="1066.7" cy="306.0" r="2.4"><title>$C4EDCC $C226C4 X=1004 Z=2672</title></circle>
<circle class="point" cx="1076.8" cy="297.4" r="2.4"><title>$C4EDE4 $C226C4 X=1756 Z=3306</title></circle>
<circle class="point" cx="1120.6" cy="235.9" r="2.4"><title>$C4EDFC $C22610 X=5012 Z=7876</title></circle>
<circle class="point" cx="1066.9" cy="250.3" r="2.4"><title>$C4EE14 $C22688 X=1020 Z=6806</title></circle>
<circle class="point" cx="1065.3" cy="255.1" r="2.4"><title>$C4EE2C $C226EC X=900 Z=6450</title></circle>
<circle class="point" cx="1063.8" cy="259.9" r="2.4"><title>$C4EE44 $C2269C X=792 Z=6096</title></circle>
<circle class="point" cx="1066.8" cy="271.0" r="2.4"><title>$C4EE5C $C2264C X=1014 Z=5272</title></circle>
<circle class="point" cx="1059.1" cy="268.2" r="2.4"><title>$C4EE74 $C22638 X=442 Z=5474</title></circle>
<circle class="point" cx="1057.2" cy="274.5" r="2.4"><title>$C4EE8C $C226D8 X=302 Z=5012</title></circle>
<circle class="point" cx="1053.0" cy="340.9" r="2.4"><title>$C4EEA4 $C22674 X=-9 Z=80</title></circle>
<circle class="point" cx="1053.6" cy="338.7" r="2.4"><title>$C4EEBC $C2232C X=32 Z=240</title></circle>
<circle class="point" cx="1054.0" cy="339.9" r="2.4"><title>$C4EED4 $C227F0 X=64 Z=152</title></circle>
<circle class="point" cx="1053.2" cy="340.9" r="2.4"><title>$C4EEEC $C225FC X=2 Z=80</title></circle>
<circle class="point" cx="1053.4" cy="341.3" r="2.4"><title>$C4EF04 $C225E8 X=22 Z=47</title></circle>
<circle class="point" cx="1053.2" cy="341.5" r="2.4"><title>$C4EF1C $C22624 X=3 Z=31</title></circle>
<circle class="point" cx="1053.3" cy="341.4" r="2.4"><title>$C4EF34 $C226C4 X=15 Z=41</title></circle>
<circle class="point" cx="1053.5" cy="341.2" r="2.4"><title>$C4EF4C $C226C4 X=27 Z=51</title></circle>
<circle class="point" cx="1053.7" cy="341.1" r="2.4"><title>$C4EF64 $C22610 X=39 Z=61</title></circle>
<circle class="point" cx="1053.3" cy="340.5" r="2.4"><title>$C4EF7C $C22688 X=15 Z=106</title></circle>
<circle class="point" cx="1053.3" cy="340.6" r="2.4"><title>$C4EF94 $C226EC X=14 Z=100</title></circle>
<circle class="point" cx="1053.3" cy="340.6" r="2.4"><title>$C4EFAC $C2269C X=12 Z=95</title></circle>
<circle class="point" cx="1053.3" cy="340.8" r="2.4"><title>$C4EFC4 $C2264C X=15 Z=82</title></circle>
<circle class="point" cx="1053.2" cy="340.8" r="2.4"><title>$C4EFDC $C22638 X=6 Z=85</title></circle>
<circle class="point" cx="1053.2" cy="340.9" r="2.4"><title>$C4EFF4 $C226D8 X=4 Z=78</title></circle>
<circle class="point" cx="1083.1" cy="395.1" r="2.4"><title>$C4F00C $C22494 X=2224 Z=-3952</title></circle>
<circle class="point" cx="1239.2" cy="169.6" r="2.4"><title>$C4F03C $C22700 X=13824 Z=12800</title></circle>
<circle class="point" cx="1071.2" cy="93.8" r="2.4"><title>$C4F054 $C22700 X=1344 Z=18432</title></circle>
<circle class="point" cx="1185.8" cy="121.4" r="2.4"><title>$C4F06C $C22764 X=9856 Z=16384</title></circle>
<circle class="point" cx="1108.3" cy="397.1" r="2.4"><title>$C4F084 $C22A98 X=4096 Z=-4096</title></circle>
<circle class="point" cx="1129.4" cy="197.2" r="2.4"><title>$C4F09C $C22778 X=5664 Z=10752</title></circle>
<circle class="point" cx="1108.3" cy="314.4" r="2.4"><title>$C4F0B4 $C22A84 X=4096 Z=2048</title></circle>
<circle class="point" cx="1201.6" cy="269.6" r="2.4"><title>$C4F0CC $C22778 X=11024 Z=5376</title></circle>
<circle class="point" cx="1218.6" cy="314.4" r="2.4"><title>$C4F0E4 $C22A84 X=12288 Z=2048</title></circle>
<circle class="point" cx="1080.7" cy="204.1" r="2.4"><title>$C4F0FC $C22A34 X=2048 Z=10240</title></circle>
<circle class="point" cx="1218.6" cy="204.1" r="2.4"><title>$C4F114 $C22A84 X=12288 Z=10240</title></circle>
<circle class="point" cx="1080.7" cy="93.8" r="2.4"><title>$C4F12C $C22A34 X=2048 Z=18432</title></circle>
<circle class="point" cx="1218.6" cy="286.8" r="2.4"><title>$C4F144 $C22A98 X=12288 Z=4096</title></circle>
<circle class="point" cx="1191.0" cy="314.4" r="2.4"><title>$C4F15C $C22A98 X=10240 Z=2048</title></circle>
<circle class="point" cx="1108.3" cy="176.5" r="2.4"><title>$C4F174 $C229F8 X=4096 Z=12288</title></circle>
<circle class="point" cx="1051.0" cy="344.1" r="2.4"><title>$C4F18C $C22958 X=-160 Z=-160</title></circle>
<circle class="point" cx="1049.7" cy="344.1" r="2.4"><title>$C4F1A4 $C2296C X=-256 Z=-160</title></circle>
<circle class="point" cx="1049.3" cy="344.9" r="2.4"><title>$C4F1BC $C22980 X=-288 Z=-224</title></circle>
<circle class="point" cx="1050.6" cy="342.8" r="2.4"><title>$C4F1D4 $C2291C X=-192 Z=-64</title></circle>
<circle class="point" cx="1050.1" cy="343.7" r="2.4"><title>$C4F1EC $C22930 X=-224 Z=-128</title></circle>
<circle class="point" cx="1047.1" cy="348.0" r="2.4"><title>$C4F204 $C229BC X=-448 Z=-448</title></circle>
<circle class="point" cx="1057.5" cy="341.1" r="2.4"><title>$C4F21C $C22A98 X=320 Z=64</title></circle>
<circle class="point" cx="1057.2" cy="339.1" r="2.4"><title>$C4F234 $C22778 X=300 Z=212</title></circle>
<circle class="point" cx="1057.5" cy="339.8" r="2.4"><title>$C4F24C $C22A84 X=320 Z=160</title></circle>
<circle class="point" cx="1059.5" cy="337.5" r="2.4"><title>$C4F264 $C22700 X=472 Z=328</title></circle>
<circle class="point" cx="1056.7" cy="338.3" r="2.4"><title>$C4F27C $C22700 X=266 Z=272</title></circle>
<circle class="point" cx="1057.6" cy="338.5" r="2.4"><title>$C4F294 $C22764 X=333 Z=256</title></circle>
<circle class="point" cx="1055.3" cy="338.1" r="2.4"><title>$C4F2AC $C22A34 X=160 Z=288</title></circle>
<circle class="point" cx="1052.7" cy="339.8" r="2.4"><title>$C4F2C4 $C22A0C X=-32 Z=160</title></circle>
<circle class="point" cx="1052.3" cy="341.1" r="2.4"><title>$C4F2DC $C22A20 X=-64 Z=64</title></circle>
<circle class="point" cx="1054.0" cy="339.3" r="2.4"><title>$C4F2F4 $C229F8 X=64 Z=192</title></circle>
<circle class="point" cx="998.0" cy="355.7" r="2.4"><title>$C4F30C $C22944 X=-4096 Z=-1024</title></circle>
<circle class="point" cx="1094.5" cy="424.6" r="2.4"><title>$C4F324 $C2287C X=3072 Z=-6144</title></circle>
<circle class="point" cx="1053.1" cy="355.7" r="2.4"><title>$C4F33C $C22944 X=0 Z=-1024</title></circle>
<circle class="point" cx="1239.2" cy="169.6" r="2.4"><title>$C4F6CC $C22700 X=13824 Z=12800</title></circle>
<circle class="point" cx="1228.9" cy="193.7" r="2.4"><title>$C4F6E4 $C22408 X=13056 Z=11008</title></circle>
<circle class="point" cx="1228.9" cy="214.8" r="2.4"><title>$C4F6FC $C2241C X=13056 Z=9440</title></circle>
<circle class="point" cx="1204.8" cy="317.8" r="2.4"><title>$C4F714 $C2255C X=11264 Z=1792</title></circle>
<circle class="point" cx="1152.2" cy="187.7" r="2.4"><title>$C4F72C $C22548 X=7360 Z=11456</title></circle>
<circle class="point" cx="1148.8" cy="190.7" r="2.4"><title>$C4F744 $C22750 X=7104 Z=11232</title></circle>
<circle class="point" cx="1145.3" cy="193.3" r="2.4"><title>$C4F75C $C22548 X=6848 Z=11040</title></circle>
<circle class="point" cx="1211.7" cy="114.5" r="2.4"><title>$C4F774 $C22548 X=11776 Z=16896</title></circle>
<circle class="point" cx="1259.9" cy="204.1" r="2.4"><title>$C4F78C $C2250C X=15360 Z=10240</title></circle>
<circle class="point" cx="1225.5" cy="190.3" r="2.4"><title>$C4F7A4 $C2250C X=12800 Z=11264</title></circle>
<circle class="point" cx="1225.5" cy="175.6" r="2.4"><title>$C4F7BC $C2250C X=12800 Z=12352</title></circle>
<circle class="point" cx="1219.4" cy="162.7" r="2.4"><title>$C4F7D4 $C2250C X=12352 Z=13312</title></circle>
<circle class="point" cx="1166.9" cy="148.1" r="2.4"><title>$C4F7EC $C2250C X=8448 Z=14400</title></circle>
<circle class="point" cx="1191.0" cy="148.9" r="2.4"><title>$C4F804 $C22520 X=10240 Z=14336</title></circle>
<circle class="point" cx="1197.9" cy="166.2" r="2.4"><title>$C4F81C $C22534 X=10752 Z=13056</title></circle>
<circle class="point" cx="1163.4" cy="176.5" r="2.4"><title>$C4F834 $C22188 X=8192 Z=12288</title></circle>
<circle class="point" cx="1121.2" cy="148.1" r="2.4"><title>$C4F84C $C22430 X=5056 Z=14400</title></circle>
<circle class="point" cx="1140.6" cy="167.5" r="2.4"><title>$C4F864 $C22430 X=6496 Z=12960</title></circle>
<circle class="point" cx="1108.3" cy="176.5" r="2.4"><title>$C4F87C $C22188 X=4096 Z=12288</title></circle>
<circle class="point" cx="1187.8" cy="235.3" r="2.4"><title>$C4F894 $C22430 X=10000 Z=7920</title></circle>
<circle class="point" cx="1218.6" cy="286.8" r="2.4"><title>$C4F8AC $C22188 X=12288 Z=4096</title></circle>
<text class="dim" x="996.0" y="506" font-size="13">X [-4096, 15872], Z [-9216, 19456]</text>
</svg>
