# Traced M-map source-pair batches from original segment 68.
# OBJ uses (source_x, 0, source_y) solely as a viewer convention.
# No faces, path closure, global placement, or game-axis meaning is inferred.
o map_static_pair_batch_01_C42D4A
v 592 0 592
v 584 0 640
v 216 0 384
v 192 0 256
v 224 0 80
v 160 0 0
v 4096 0 -256
l 1 2 3 4 5 6 7
o map_static_pair_batch_02_C42D6A
v 80 0 384
v -96 0 232
v -144 0 56
v 72 0 200
l 8 9 10 11
o map_static_pair_batch_03_C42D7E
v 96 0 768
v 176 0 628
v 96 0 568
v -16 0 664
l 12 13 14 15
o map_static_pair_batch_04_C42D92
v 224 0 384
v 160 0 408
v 112 0 496
v 40 0 480
v 48 0 344
v 112 0 408
v 232 0 368
l 16 17 18 19 20 21 22
o map_static_pair_batch_05_C42DB2
v 136 0 600
v 192 0 536
v 128 0 472
v 88 0 512
l 23 24 25 26
o map_static_pair_batch_06_C42E04
v 4071 0 1356
v 4004 0 1217
v 4020 0 1190
v 4040 0 1259
v 4088 0 1308
l 27 28 29 30 31
o map_static_pair_batch_07_C42E20
v 4352 0 4352
v 160 0 4096
v 112 0 3976
v 136 0 3840
v 0 0 3640
v 0 0 0
v 4096 0 -256
l 32 33 34 35 36 37 38
o map_static_pair_batch_08_C42DCA
v 4096 0 3640
v 3920 0 3488
v 3760 0 3536
v 3664 0 3360
v 3728 0 3160
v 3792 0 3192
v 3840 0 3104
v 3760 0 2752
v 2944 0 1792
v 2880 0 1280
v 0 0 0
v 4352 0 0
l 39 40 41 42 43 44 45 46 47 48 49 50
o map_static_pair_batch_09_C42E58
v 4352 0 4352
v 0 0 4224
v 0 0 0
v 4224 0 0
l 51 52 53 54
o map_static_pair_batch_10_C42E58
v 4352 0 4352
v 0 0 4224
v 0 0 0
v 4224 0 0
l 55 56 57 58
o map_static_pair_batch_11_C42E58
v 4352 0 4352
v 0 0 4224
v 0 0 0
v 4224 0 0
l 59 60 61 62
o map_static_pair_batch_12_C42E58
v 4352 0 4352
v 0 0 4224
v 0 0 0
v 4224 0 0
l 63 64 65 66
o map_static_pair_batch_13_C42E58
v 4352 0 4352
v 0 0 4224
v 0 0 0
v 4224 0 0
l 67 68 69 70
o map_static_pair_batch_14_C42E58
v 4352 0 4352
v 0 0 4224
v 0 0 0
v 4224 0 0
l 71 72 73 74
o map_static_pair_batch_15_C43ED0
v 2192 0 1296
v 2336 0 1136
v 2480 0 1200
v 2816 0 848
v 2688 0 512
v 3136 0 448
v 2640 0 0
v 1408 0 0
v 1712 0 288
l 75 76 77 78 79 80 81 82 83
o map_static_pair_batch_16_C43EF6
v 2720 0 2816
v 1088 0 1856
v 976 0 1264
v 1504 0 896
v 1328 0 512
v 1712 0 768
v 2080 0 912
v 2192 0 1296
v 2944 0 2048
l 84 85 86 87 88 89 90 91 92
o map_static_pair_batch_17_C43F1C
v 1536 0 4160
v 0 0 3136
v 0 0 1792
v 768 0 1536
v 2720 0 2816
v 2816 0 3392
v 2160 0 3552
l 93 94 95 96 97 98 99
o map_static_pair_batch_18_C43E2A
v 4096 0 3136
v 3824 0 2688
v 3552 0 2688
v 3520 0 2496
v 4160 0 1824
l 100 101 102 103 104
o map_static_pair_batch_19_C43E40
v 4112 0 4112
v 3808 0 4096
v 3904 0 3648
v 3152 0 2512
v 3536 0 2512
v 3632 0 2688
v 3472 0 2848
v 4016 0 3616
l 105 106 107 108 109 110 111 112
o map_static_pair_batch_20_C43E62
v 3216 0 2640
v 2592 0 2736
v 2272 0 2272
v 1664 0 2304
v 1472 0 2224
v 2048 0 1888
v 2608 0 2416
v 3232 0 2544
l 113 114 115 116 117 118 119 120
o map_static_pair_batch_21_C43E84
v 1792 0 2288
v 880 0 3664
v 0 0 3968
v 0 0 2432
v 1472 0 2224
l 121 122 123 124 125
o map_static_pair_batch_22_C43D8A
v 4096 0 3936
v 3840 0 3456
v 4128 0 3248
l 126 127 128
o map_static_pair_batch_23_C43D98
v 4160 0 3024
v 3552 0 2784
v 2880 0 2944
v 2752 0 2784
v 2912 0 2544
v 3328 0 2320
v 4096 0 2432
l 129 130 131 132 133 134 135
o map_static_pair_batch_24_C43DB6
v 3152 0 2464
v 2512 0 2384
v 1808 0 2816
v 1104 0 2480
v 1184 0 2384
v 1760 0 2576
v 1664 0 2112
v 1792 0 1936
v 1840 0 2512
v 2400 0 2176
v 3328 0 2320
l 136 137 138 139 140 141 142 143 144 145 146
o map_static_pair_batch_25_C43DE4
v 1104 0 2480
v 592 0 1984
v 0 0 2240
v 0 0 2048
v 192 0 1920
v 0 0 1840
v 0 0 1584
v 512 0 1792
v 1104 0 1712
v 1792 0 1936
v 1632 0 2240
l 147 148 149 150 151 152 153 154 155 156 157
o map_static_pair_batch_26_C43E12
v 0 0 3488
v 1280 0 2560
v 1040 0 2448
v 0 0 3312
l 158 159 160 161
o map_static_pair_batch_27_C43BB2
v 4096 0 3072
v 3424 0 2304
v 2512 0 2496
v 2752 0 1728
v 3200 0 1664
v 2960 0 0
v 4288 0 0
l 162 163 164 165 166 167 168
o map_static_pair_batch_28_C43BD0
v 3024 0 3712
v 2432 0 3264
v 2112 0 3456
v 1440 0 1792
v 2688 0 2112
v 2656 0 2464
v 2592 0 2608
v 2688 0 3008
v 3280 0 3472
v 2944 0 3392
l 169 170 171 172 173 174 175 176 177 178
o map_static_pair_batch_29_C43BFA
v 2912 0 4288
v 1408 0 4096
v 1520 0 3888
v 640 0 3968
v 336 0 3616
v 544 0 3552
v 288 0 3248
v 512 0 3328
v 2048 0 3376
v 2672 0 3888
v 2608 0 4000
l 179 180 181 182 183 184 185 186 187 188 189
o map_static_pair_batch_30_C43C28
v 2112 0 3456
v 512 0 3328
v 400 0 3024
v 256 0 3152
v 128 0 2512
v 592 0 2400
v 592 0 2336
v 320 0 2336
v 1280 0 1728
v 1920 0 2240
l 190 191 192 193 194 195 196 197 198 199
o map_static_pair_batch_31_C43C52
v 1408 0 1856
v 768 0 2080
v 528 0 2096
v 608 0 1648
v 0 0 1424
v 0 0 0
v 1472 0 0
l 200 201 202 203 204 205 206
o map_static_pair_batch_32_C43B3A
v 4160 0 1408
v 3424 0 1120
v 3200 0 1296
v 2928 0 976
v 3008 0 864
v 3520 0 1072
v 3808 0 864
v 4224 0 896
l 207 208 209 210 211 212 213 214
o map_static_pair_batch_33_C43B5C
v 4160 0 928
v 3712 0 928
v 3376 0 560
v 3456 0 576
v 3488 0 528
v 3056 0 176
v 3024 0 0
v 4224 0 0
l 215 216 217 218 219 220 221 222
o map_static_pair_batch_34_C43B7E
v 3056 0 176
v 2992 0 240
v 2992 0 384
v 2608 0 0
v 3056 0 0
l 223 224 225 226 227
o map_static_pair_batch_35_C43A7E
v 4224 0 4224
v 2960 0 4096
v 3072 0 2432
v 3296 0 2432
v 3328 0 1376
v 2960 0 640
v 2688 0 800
v 2240 0 0
v 4224 0 0
l 228 229 230 231 232 233 234 235 236
o map_static_pair_batch_36_C43AA4
v 1408 0 4192
v 1296 0 3792
v 1504 0 3712
v 1280 0 3648
v 1312 0 3392
v 1488 0 3360
v 1280 0 3072
v 976 0 2960
v 0 0 4096
l 237 238 239 240 241 242 243 244 245
o map_static_pair_batch_37_C43ACA
v 1040 0 3088
v 1136 0 2880
v 960 0 2768
v 1024 0 2672
v 1216 0 2752
v 1280 0 2608
v 1024 0 2368
v 0 0 2048
v 0 0 4096
l 246 247 248 249 250 251 252 253 254
o map_static_pair_batch_38_C439EE
v 4224 0 4224
v 2608 0 4096
v 2128 0 2240
v 2752 0 1440
v 3072 0 1440
v 3520 0 1856
v 4096 0 2048
l 255 256 257 258 259 260 261
o map_static_pair_batch_39_C43A0C
v 2128 0 2240
v 1552 0 784
v 1728 0 624
v 2848 0 1216
v 2944 0 1536
l 262 263 264 265 266
o map_static_pair_batch_40_C43A22
v 1808 0 720
v 1552 0 784
v 800 0 672
v 704 0 128
v 0 0 192
v 64 0 64
v 448 0 0
v 1408 0 0
l 267 268 269 270 271 272 273 274
o map_static_pair_batch_41_C440A4
v 0 0 672
v 0 0 0
v 112 0 160
v 80 0 464
v 448 0 688
l 275 276 277 278 279
o map_static_pair_batch_42_C44082
v 4128 0 672
v 4016 0 576
v 4096 0 176
l 280 281 282
o map_static_pair_batch_43_C44090
v 4128 0 192
v 3808 0 0
v 4128 0 0
l 283 284 285
o map_static_pair_batch_44_C4406C
v 3312 0 816
v 3712 0 0
v 3840 0 0
l 286 287 288
o map_static_pair_batch_45_C43F64
v 4096 0 1920
v 3040 0 1088
v 2800 0 512
v 2176 0 144
v 2144 0 0
v 4160 0 0
l 289 290 291 292 293 294
o map_static_pair_batch_46_C43F7E
v 1632 0 320
v 1232 0 0
v 1536 0 0
l 295 296 297
o map_static_pair_batch_47_C43F8C
v 4128 0 3904
v 3968 0 3632
v 3856 0 3632
v 3872 0 3488
v 3744 0 3504
v 3488 0 3136
v 3552 0 2912
v 4096 0 3648
l 298 299 300 301 302 303 304 305
o map_static_pair_batch_48_C43D3A
v 3824 0 4144
v 4128 0 3328
v 4096 0 3312
v 3712 0 3840
v 3712 0 4096
l 306 307 308 309 310
o map_static_pair_batch_49_C43D50
v 3568 0 3200
v 3712 0 2608
v 4128 0 2208
v 4096 0 2048
v 3584 0 2496
v 3520 0 3088
v 3328 0 3104
l 311 312 313 314 315 316 317
o map_static_pair_batch_50_C43D6E
v 4096 0 1840
v 3792 0 1920
v 3696 0 1744
v 3904 0 1584
v 4128 0 1600
l 318 319 320 321 322
o map_static_pair_batch_51_C43CC4
v 4224 0 4224
v 2144 0 4096
v 2128 0 4016
v 1680 0 3792
v 1488 0 3968
v 1536 0 4096
v 1232 0 4096
v 976 0 3888
v 1408 0 3968
v 912 0 3776
v 0 0 3072
v 0 0 0
v 4224 0 0
l 323 324 325 326 327 328 329 330 331 332 333 334 335
o map_static_pair_batch_52_C43B20
v 4224 0 4224
v 0 0 4224
v 0 0 0
v 4224 0 0
l 336 337 338 339
o map_static_pair_batch_53_C439D2
v 4224 0 4224
v 0 0 4224
v 0 0 0
v 4224 0 0
l 340 341 342 343
o map_static_pair_batch_54_C439AE
v 2192 0 4096
v 1920 0 2880
v 1584 0 2304
v 1904 0 320
v 1792 0 0
v 4224 0 0
v 4224 0 4224
l 344 345 346 347 348 349 350
o map_static_pair_batch_55_C4399A
v 1408 0 4096
v 384 0 4160
v 832 0 3840
l 351 352 353
