# Selector-proven static M-map packet streams from segment 68.
# OBJ coordinate convention: (source_x, 0, source_y).
# The zero middle coordinate is a viewer carrier only; no faces or inter-batch joins are inferred.
o packet_C42D2C_batch_01
v 4352 0 4352
v 1600 0 4096
v 1536 0 2432
v 1280 0 1664
v 768 0 1088
v 600 0 768
v 664 0 592
v 592 0 592
v 584 0 640
v 216 0 384
v 192 0 256
v 224 0 80
v 160 0 0
v 4096 0 -256
l 1 2 3 4 5 6 7 8 9 10 11 12 13 14
o packet_C42D2C_batch_02
v 80 0 384
v -96 0 232
v -144 0 56
v 72 0 200
l 15 16 17 18
o packet_C42D2C_batch_03
v 96 0 768
v 176 0 628
v 96 0 568
v -16 0 664
l 19 20 21 22
o packet_C42D2C_batch_04
v 224 0 384
v 160 0 408
v 112 0 496
v 40 0 480
v 48 0 344
v 112 0 408
v 232 0 368
l 23 24 25 26 27 28 29
o packet_C42D2C_batch_05
v 136 0 600
v 192 0 536
v 128 0 472
v 88 0 512
l 30 31 32 33
o packet_C42DC8_batch_01
v 4096 0 3640
v 3920 0 3488
v 3760 0 3536
v 3664 0 3360
v 3728 0 3160
v 3792 0 3192
v 3840 0 3104
v 3760 0 2752
v 2944 0 1792
v 2880 0 1280
v 0 0 0
v 4352 0 0
l 34 35 36 37 38 39 40 41 42 43 44 45
o packet_C42E00_batch_01
v 4071 0 1356
v 4004 0 1217
v 4020 0 1190
v 4040 0 1259
v 4088 0 1308
l 46 47 48 49 50
o packet_C42E1E_batch_01
v 4352 0 4352
v 160 0 4096
v 112 0 3976
v 136 0 3840
v 0 0 3640
v 0 0 0
v 4096 0 -256
l 51 52 53 54 55 56 57
o packet_C42E42_batch_01
v 4352 0 4352
v 1600 0 0
v 4096 0 -256
l 58 59 60
o packet_C42E56_batch_01
v 4352 0 4352
v 0 0 4224
v 0 0 0
v 4224 0 0
l 61 62 63 64
o packet_C43998_batch_01
v 1408 0 4096
v 384 0 4160
v 832 0 3840
l 65 66 67
o packet_C439AC_batch_01
v 2192 0 4096
v 1920 0 2880
v 1584 0 2304
v 1904 0 320
v 1792 0 0
v 4224 0 0
v 4224 0 4224
l 68 69 70 71 72 73 74
o packet_C439D0_batch_01
v 4224 0 4224
v 0 0 4224
v 0 0 0
v 4224 0 0
l 75 76 77 78
o packet_C439EC_batch_01
v 4224 0 4224
v 2608 0 4096
v 2128 0 2240
v 2752 0 1440
v 3072 0 1440
v 3520 0 1856
v 4096 0 2048
l 79 80 81 82 83 84 85
o packet_C439EC_batch_02
v 2128 0 2240
v 1552 0 784
v 1728 0 624
v 2848 0 1216
v 2944 0 1536
l 86 87 88 89 90
o packet_C439EC_batch_03
v 1808 0 720
v 1552 0 784
v 800 0 672
v 704 0 128
v 0 0 192
v 64 0 64
v 448 0 0
v 1408 0 0
l 91 92 93 94 95 96 97 98
o packet_C43A44_batch_01
v 4224 0 4224
v 2608 0 4096
v 1552 0 784
v 800 0 672
v 704 0 128
v 0 0 192
v 64 0 64
v 448 0 0
v 1408 0 0
v 1808 0 720
v 3520 0 1856
v 4096 0 2048
l 99 100 101 102 103 104 105 106 107 108 109 110
o packet_C43A7C_batch_01
v 4224 0 4224
v 2960 0 4096
v 3072 0 2432
v 3296 0 2432
v 3328 0 1376
v 2960 0 640
v 2688 0 800
v 2240 0 0
v 4224 0 0
l 111 112 113 114 115 116 117 118 119
o packet_C43A7C_batch_02
v 1408 0 4192
v 1296 0 3792
v 1504 0 3712
v 1280 0 3648
v 1312 0 3392
v 1488 0 3360
v 1280 0 3072
v 976 0 2960
v 0 0 4096
l 120 121 122 123 124 125 126 127 128
o packet_C43A7C_batch_03
v 1040 0 3088
v 1136 0 2880
v 960 0 2768
v 1024 0 2672
v 1216 0 2752
v 1280 0 2608
v 1024 0 2368
v 0 0 2048
v 0 0 4096
l 129 130 131 132 133 134 135 136 137
o packet_C43AF0_batch_01
v 4224 0 4224
v 2960 0 4096
v 3328 0 1376
v 2240 0 0
v 4224 0 0
l 138 139 140 141 142
o packet_C43AF0_batch_02
v 1408 0 4192
v 1024 0 2368
v 0 0 2048
v 0 0 4096
l 143 144 145 146
o packet_C43B1E_batch_01
v 4224 0 4224
v 0 0 4224
v 0 0 0
v 4224 0 0
l 147 148 149 150
o packet_C43B38_batch_01
v 4160 0 1408
v 3424 0 1120
v 3200 0 1296
v 2928 0 976
v 3008 0 864
v 3520 0 1072
v 3808 0 864
v 4224 0 896
l 151 152 153 154 155 156 157 158
o packet_C43B38_batch_02
v 4160 0 928
v 3712 0 928
v 3376 0 560
v 3456 0 576
v 3488 0 528
v 3056 0 176
v 3024 0 0
v 4224 0 0
l 159 160 161 162 163 164 165 166
o packet_C43B38_batch_03
v 3056 0 176
v 2992 0 240
v 2992 0 384
v 2608 0 0
v 3056 0 0
l 167 168 169 170 171
o packet_C43B94_batch_01
v 4160 0 1408
v 2928 0 976
v 3872 0 832
v 2816 0 0
v 4224 0 0
l 172 173 174 175 176
o packet_C43BB0_batch_01
v 4096 0 3072
v 3424 0 2304
v 2512 0 2496
v 2752 0 1728
v 3200 0 1664
v 2960 0 0
v 4288 0 0
l 177 178 179 180 181 182 183
o packet_C43BB0_batch_02
v 3024 0 3712
v 2432 0 3264
v 2112 0 3456
v 1440 0 1792
v 2688 0 2112
v 2656 0 2464
v 2592 0 2608
v 2688 0 3008
v 3280 0 3472
v 2944 0 3392
l 184 185 186 187 188 189 190 191 192 193
o packet_C43BB0_batch_03
v 2912 0 4288
v 1408 0 4096
v 1520 0 3888
v 640 0 3968
v 336 0 3616
v 544 0 3552
v 288 0 3248
v 512 0 3328
v 2048 0 3376
v 2672 0 3888
v 2608 0 4000
l 194 195 196 197 198 199 200 201 202 203 204
o packet_C43BB0_batch_04
v 2112 0 3456
v 512 0 3328
v 400 0 3024
v 256 0 3152
v 128 0 2512
v 592 0 2400
v 592 0 2336
v 320 0 2336
v 1280 0 1728
v 1920 0 2240
l 205 206 207 208 209 210 211 212 213 214
o packet_C43BB0_batch_05
v 1408 0 1856
v 768 0 2080
v 528 0 2096
v 608 0 1648
v 0 0 1424
v 0 0 0
v 1472 0 0
l 215 216 217 218 219 220 221
o packet_C43C70_batch_01
v 4096 0 3072
v 3424 0 2304
v 2512 0 2496
v 2752 0 1728
v 3200 0 1664
v 2960 0 0
v 4288 0 0
l 222 223 224 225 226 227 228
o packet_C43C70_batch_02
v 2912 0 4288
v 1408 0 4096
v 288 0 3248
v 608 0 1648
v 0 0 1424
v 0 0 0
v 1472 0 0
v 1440 0 1792
v 2688 0 2112
v 2688 0 3008
v 2112 0 3456
l 229 230 231 232 233 234 235 236 237 238 239
o packet_C43CC2_batch_01
v 4224 0 4224
v 2144 0 4096
v 2128 0 4016
v 1680 0 3792
v 1488 0 3968
v 1536 0 4096
v 1232 0 4096
v 976 0 3888
v 1408 0 3968
v 912 0 3776
v 0 0 3072
v 0 0 0
v 4224 0 0
l 240 241 242 243 244 245 246 247 248 249 250 251 252
o packet_C43CFA_batch_01
v 4224 0 4224
v 2144 0 4096
v 1728 0 3712
v 1536 0 4096
v 0 0 3072
v 0 0 0
v 4224 0 0
l 253 254 255 256 257 258 259
o packet_C43D1E_batch_01
v 4224 0 4224
v 0 0 4224
v 0 0 0
v 4224 0 0
l 260 261 262 263
o packet_C43D38_batch_01
v 3824 0 4144
v 4128 0 3328
v 4096 0 3312
v 3712 0 3840
v 3712 0 4096
l 264 265 266 267 268
o packet_C43D38_batch_02
v 3568 0 3200
v 3712 0 2608
v 4128 0 2208
v 4096 0 2048
v 3584 0 2496
v 3520 0 3088
v 3328 0 3104
l 269 270 271 272 273 274 275
o packet_C43D38_batch_03
v 4096 0 1840
v 3792 0 1920
v 3696 0 1744
v 3904 0 1584
v 4128 0 1600
l 276 277 278 279 280
o packet_C43D88_batch_01
v 4096 0 3936
v 3840 0 3456
v 4128 0 3248
l 281 282 283
o packet_C43D88_batch_02
v 4160 0 3024
v 3552 0 2784
v 2880 0 2944
v 2752 0 2784
v 2912 0 2544
v 3328 0 2320
v 4096 0 2432
l 284 285 286 287 288 289 290
o packet_C43D88_batch_03
v 3152 0 2464
v 2512 0 2384
v 1808 0 2816
v 1104 0 2480
v 1184 0 2384
v 1760 0 2576
v 1664 0 2112
v 1792 0 1936
v 1840 0 2512
v 2400 0 2176
v 3328 0 2320
l 291 292 293 294 295 296 297 298 299 300 301
o packet_C43D88_batch_04
v 1104 0 2480
v 592 0 1984
v 0 0 2240
v 0 0 2048
v 192 0 1920
v 0 0 1840
v 0 0 1584
v 512 0 1792
v 1104 0 1712
v 1792 0 1936
v 1632 0 2240
l 302 303 304 305 306 307 308 309 310 311 312
o packet_C43D88_batch_05
v 0 0 3488
v 1280 0 2560
v 1040 0 2448
v 0 0 3312
l 313 314 315 316
o packet_C43E28_batch_01
v 4096 0 3136
v 3824 0 2688
v 3552 0 2688
v 3520 0 2496
v 4160 0 1824
l 317 318 319 320 321
o packet_C43E28_batch_02
v 4112 0 4112
v 3808 0 4096
v 3904 0 3648
v 3152 0 2512
v 3536 0 2512
v 3632 0 2688
v 3472 0 2848
v 4016 0 3616
l 322 323 324 325 326 327 328 329
o packet_C43E28_batch_03
v 3216 0 2640
v 2592 0 2736
v 2272 0 2272
v 1664 0 2304
v 1472 0 2224
v 2048 0 1888
v 2608 0 2416
v 3232 0 2544
l 330 331 332 333 334 335 336 337
o packet_C43E28_batch_04
v 1792 0 2288
v 880 0 3664
v 0 0 3968
v 0 0 2432
v 1472 0 2224
l 338 339 340 341 342
o packet_C43E9A_batch_01
v 4112 0 4112
v 3808 0 4096
v 3216 0 2640
v 1792 0 2288
v 0 0 3968
v 0 0 2432
v 2048 0 1888
v 3520 0 2496
v 4160 0 1824
v 4096 0 3136
v 3472 0 2848
l 343 344 345 346 347 348 349 350 351 352 353
o packet_C43ECE_batch_01
v 2192 0 1296
v 2336 0 1136
v 2480 0 1200
v 2816 0 848
v 2688 0 512
v 3136 0 448
v 2640 0 0
v 1408 0 0
v 1712 0 288
l 354 355 356 357 358 359 360 361 362
o packet_C43ECE_batch_02
v 2720 0 2816
v 1088 0 1856
v 976 0 1264
v 1504 0 896
v 1328 0 512
v 1712 0 768
v 2080 0 912
v 2192 0 1296
v 2944 0 2048
l 363 364 365 366 367 368 369 370 371
o packet_C43ECE_batch_03
v 1536 0 4160
v 0 0 3136
v 0 0 1792
v 768 0 1536
v 2720 0 2816
v 2816 0 3392
v 2160 0 3552
l 372 373 374 375 376 377 378
o packet_C43F3A_batch_01
v 2640 0 0
v 2192 0 1296
v 2816 0 3392
v 1536 0 4160
v 0 0 3136
v 0 0 1792
v 2080 0 912
v 1408 0 0
l 379 380 381 382 383 384 385 386
o packet_C43F62_batch_01
v 4096 0 1920
v 3040 0 1088
v 2800 0 512
v 2176 0 144
v 2144 0 0
v 4160 0 0
l 387 388 389 390 391 392
o packet_C43F62_batch_02
v 1632 0 320
v 1232 0 0
v 1536 0 0
l 393 394 395
o packet_C43F62_batch_03
v 4128 0 3904
v 3968 0 3632
v 3856 0 3632
v 3872 0 3488
v 3744 0 3504
v 3488 0 3136
v 3552 0 2912
v 4096 0 3648
l 396 397 398 399 400 401 402 403
o packet_C43FAE_batch_01
v 4096 0 1920
v 2144 0 0
v 4160 0 0
l 404 405 406
o packet_C43FAE_batch_02
v 4128 0 3904
v 3488 0 3136
v 3552 0 2912
v 4096 0 3648
l 407 408 409 410
o packet_C43FD4_batch_01
v 4224 0 4224
v 1152 0 4096
v 2016 0 1664
v 2176 0 1584
v 2128 0 1472
v 1328 0 1392
v 1664 0 1616
v 1296 0 2080
v 992 0 2128
v 832 0 2048
v 0 0 1920
v 0 0 0
v 4224 0 0
l 411 412 413 414 415 416 417 418 419 420 421 422 423
o packet_C43FD4_batch_02
v 832 0 3328
v 896 0 2688
v 640 0 2848
v 896 0 2176
v 640 0 2160
v 576 0 2464
v 560 0 2160
v 288 0 2096
v 976 0 2112
v 1280 0 2640
v 1072 0 2656
l 424 425 426 427 428 429 430 431 432 433 434
o packet_C43FD4_batch_03
v 384 0 4128
v 128 0 4096
v 0 0 3888
v 0 0 3648
l 435 436 437 438
o packet_C4406A_batch_01
v 3312 0 816
v 3712 0 0
v 3840 0 0
l 439 440 441
o packet_C44080_batch_01
v 4128 0 672
v 4016 0 576
v 4096 0 176
l 442 443 444
o packet_C44080_batch_02
v 4128 0 192
v 3808 0 0
v 4128 0 0
l 445 446 447
o packet_C440A2_batch_01
v 0 0 672
v 0 0 0
v 112 0 160
v 80 0 464
v 448 0 688
l 448 449 450 451 452
o packet_C440C0_batch_01
v 2576 0 3520
v 2224 0 3152
v 2432 0 3152
v 2528 0 3008
v 2432 0 2944
v 2496 0 2896
v 2640 0 3072
l 453 454 455 456 457 458 459
o packet_C440C0_batch_02
v 4224 0 4224
v 2816 0 4096
v 2736 0 3632
v 2864 0 3264
v 2624 0 2848
v 2496 0 2896
v 1536 0 1472
v 1344 0 736
v 1104 0 256
v 1152 0 0
v 4224 0 0
l 460 461 462 463 464 465 466 467 468 469 470
o packet_C440C0_batch_03
v 2496 0 2992
v 2432 0 3104
v 2240 0 3104
v 1840 0 2816
v 1360 0 1888
v 1440 0 1664
v 1856 0 1824
v 2496 0 2896
l 471 472 473 474 475 476 477 478
o packet_C440C0_batch_04
v 1632 0 1760
v 1440 0 1648
v 1200 0 1664
v 1184 0 1360
v 864 0 1232
v 1056 0 1088
l 479 480 481 482 483 484
o packet_C440C0_batch_05
v 1056 0 1088
v 736 0 1424
v 672 0 896
v 48 0 0
v 384 0 0
l 485 486 487 488 489
