<?xml version="1.0" encoding="UTF-8"?>
<svg xmlns="http://www.w3.org/2000/svg" width="782" height="236" viewBox="0 0 782 236" shape-rendering="crispEdges">
<title>M-map source-vector panned mosaic</title>
<desc>Two C4B390-before-C2FF48 polygon captures joined by the measured run035-to-run003 coastline translation.</desc>
<rect width="782" height="236" fill="#115511"/>
<g fill="#003366" stroke="none">
<polygon points="0,14 166,63 178,92 162,133 196,151 0,156"><title>run003: $C4BFE8, submission 0</title></polygon>
<polygon points="240,63 334,97 362,138 244,105"><title>run003: $C4BFAC, submission 1</title></polygon>
<polygon points="198,0 188,7 232,21 292,0"><title>run003: $C4BFAC, submission 2</title></polygon>
<polygon points="162,63 196,58 224,37 262,41 258,73 224,58 158,67"><title>run003: $C4BFBE, submission 3</title></polygon>
<polygon points="210,14 178,28 214,43 236,34"><title>run003: $C4BFAC, submission 4</title></polygon>
<polygon points="0,146 196,151 224,179 224,179 0,179"><title>run003: $C4BFBE, submission 5</title></polygon>
<polygon points="208,15 204,17 198,16 188,21 192,26 176,27 194,34 236,34 224,29"><title>run003: $C4BFCA, submission 6</title></polygon>
<polygon points="216,0 246,7 250,15 232,21 238,26 224,22 212,20 208,15 182,4 186,0"><title>run003: $C4BFCA, submission 7</title></polygon>
<polygon points="284,0 284,8 258,11 214,0"><title>run003: $C4BFBE, submission 8</title></polygon>
<polygon points="298,0 282,7 282,0"><title>run003: $C4BFB2, submission 9</title></polygon>
<polygon points="342,0 344,1 364,0 372,1 352,6 334,0"><title>run003: $C4BFC4, submission 10</title></polygon>
<polygon points="360,1 362,0 404,0 372,1"><title>run003: $C4BFB2, submission 11</title></polygon>
<polygon points="450,0 448,0 438,0"><title>run003: $C4BFBE, submission 12</title></polygon>
<polygon points="502,0 504,3 500,6 500,0 490,0 480,2 448,0 450,0"><title>run003: $C4BFD6, submission 13</title></polygon>
<polygon points="528,0 542,5 562,1 562,4 554,6 562,7 562,11 544,8 524,9 500,6 506,1 514,0"><title>run003: $C4BFD6, submission 14</title></polygon>
<polygon points="144,48 166,59 198,57 190,68 174,69 182,92 136,92"><title>run003: $C4BFBE, submission 15</title></polygon>
<polygon points="180,39 200,46 212,43 234,67 192,62 192,57 194,55 192,49 172,43 182,44"><title>run003: $C4BFD0, submission 16</title></polygon>
<polygon points="184,31 236,34 232,37 262,35 272,40 264,41 274,46 266,45 214,44 192,37 194,35"><title>run003: $C4BFD6, submission 17</title></polygon>
<polygon points="212,43 266,45 270,49 274,47 280,56 264,58 264,59 272,59 240,68 218,60"><title>run003: $C4BFD0, submission 18</title></polygon>
<polygon points="236,66 258,63 266,62 262,69 284,72 284,92 234,92"><title>run003: $C4BFBE, submission 19</title></polygon>
<polygon points="282,72 306,76 314,74 322,79 318,80 304,77 294,80 280,80"><title>run003: $C4BFC4, submission 20</title></polygon>
<polygon points="282,79 296,79 308,85 306,84 304,85 318,89 318,92 280,92"><title>run003: $C4BFC4, submission 21</title></polygon>
<polygon points="318,89 320,89 320,87 332,92 318,92"><title>run003: $C4BFB2, submission 22</title></polygon>
<polygon points="140,90 182,92 178,116 170,116 170,131 182,141 192,139 206,151 140,151"><title>run003: $C4BFCA, submission 23</title></polygon>
<polygon points="236,90 240,96 232,97 240,98 238,102 232,102 240,106 250,108 284,92"><title>run003: $C4BFCA, submission 24</title></polygon>
<polygon points="248,106 244,109 250,111 248,112 242,111 240,113 248,117 284,121 284,92"><title>run003: $C4BFCA, submission 25</title></polygon>
<polygon points="280,90 332,92 348,118 328,130 318,130 304,124 284,121"><title>run003: $C4BFBE, submission 26</title></polygon>
<polygon points="348,118 368,139 362,142 324,133 320,129"><title>run003: $C4BFB2, submission 27</title></polygon>
<polygon points="360,140 368,139 394,141 398,149 422,148 420,150 406,151 374,151"><title>run003: $C4BFC4, submission 28</title></polygon>
<polygon points="4,6 40,18 48,26 70,31 70,34 2,34"><title>run003: $C4BFB8, submission 29</title></polygon>
<polygon points="88,29 102,34 92,34"><title>run003: $C4BFA6, submission 30</title></polygon>
<polygon points="566,0 560,2 562,4 574,0"><title>run003: $C4BFBE, submission 31</title></polygon>
<polygon points="562,7 572,6 576,8 568,11 560,10"><title>run003: $C4BFB2, submission 32</title></polygon>
<polygon points="0,32 70,34 70,35 86,38 92,35 92,34 102,34 110,37 96,35 112,38 144,48 144,92 0,92"><title>run003: $C4BFE2, submission 33</title></polygon>
<polygon points="0,90 144,90 144,151 0,151"><title>run003: $C4BFAC, submission 34</title></polygon>
<polygon points="0,149 144,149 144,179 0,179"><title>run003: $C4BFAC, submission 35</title></polygon>
<polygon points="208,151 218,168 230,177 228,179 140,179 140,149"><title>run003: $C4BFBE, submission 36</title></polygon>
<polygon points="374,151 408,150 394,154"><title>run003: $C4BFA6, submission 37</title></polygon>
<polygon points="214,94 222,95 220,94"><title>run003: $C3B6B0, submission 38</title></polygon>
<polygon points="222,95 222,92 220,94"><title>run003: $C3B6B0, submission 39</title></polygon>
<polygon points="222,92 216,92 220,94"><title>run003: $C3B6B0, submission 40</title></polygon>
<polygon points="216,92 214,94 220,94"><title>run003: $C3B6B0, submission 41</title></polygon>
<polygon points="740,70 762,71 780,67 780,71 766,74 734,72"><title>run035: $C4BFD6, submission 0</title></polygon>
<polygon points="146,104 290,104 290,164 146,164"><title>run035: $C4BFAC, submission 1</title></polygon>
<polygon points="146,162 290,162 290,215 146,215"><title>run035: $C4BFAC, submission 2</title></polygon>
<polygon points="498,166 506,168 504,166"><title>run035: $C3B6B0, submission 3</title></polygon>
<polygon points="506,168 506,164 504,166"><title>run035: $C3B6B0, submission 4</title></polygon>
<polygon points="506,164 500,164 504,166"><title>run035: $C3B6B0, submission 5</title></polygon>
<polygon points="500,164 498,166 504,166"><title>run035: $C3B6B0, submission 6</title></polygon>
<polygon points="228,36 242,47 208,87 246,87 250,76 452,134 464,164 448,204 466,215 142,215 142,36"><title>run035: $C4BFE8, submission 7</title></polygon>
<polygon points="524,134 622,169 648,210 530,177"><title>run035: $C4BFAC, submission 8</title></polygon>
<polygon points="516,47 472,79 516,93 578,71"><title>run035: $C4BFAC, submission 9</title></polygon>
<polygon points="448,134 482,129 508,110 546,113 542,143 508,129 444,138"><title>run035: $C4BFBE, submission 10</title></polygon>
<polygon points="494,85 464,100 500,115 520,106"><title>run035: $C4BFAC, submission 11</title></polygon>
<polygon points="142,214 156,215 142,215"><title>run035: $C4BFBE, submission 12</title></polygon>
<polygon points="290,78 326,90 334,98 356,104 356,106 288,106"><title>run035: $C4BFB8, submission 13</title></polygon>
<polygon points="374,101 388,106 378,106"><title>run035: $C4BFA6, submission 14</title></polygon>
<polygon points="288,49 294,53 298,53 298,55 302,55 310,60 308,64 290,53"><title>run035: $C4BFC4, submission 15</title></polygon>
<polygon points="494,87 488,89 484,88 472,93 476,98 460,99 478,106 520,106 510,101"><title>run035: $C4BFCA, submission 16</title></polygon>
<polygon points="476,65 530,79 534,87 516,93 522,98 510,95 496,92 494,87 468,76"><title>run035: $C4BFCA, submission 17</title></polygon>
<polygon points="516,46 568,60 568,80 542,83 476,65 472,57 494,54"><title>run035: $C4BFBE, submission 18</title></polygon>
<polygon points="568,60 578,67 586,67 588,70 566,79"><title>run035: $C4BFB2, submission 19</title></polygon>
<polygon points="568,46 578,47 574,53 600,69 588,69 584,67 590,65 570,53"><title>run035: $C4BFC4, submission 20</title></polygon>
<polygon points="598,68 620,66 630,73 652,72 658,74 638,78 618,71 598,69"><title>run035: $C4BFC4, submission 21</title></polygon>
<polygon points="646,73 678,53 708,48 708,71 658,74"><title>run035: $C4BFB2, submission 22</title></polygon>
<polygon points="286,104 356,106 358,107 372,110 380,107 378,106 388,106 396,109 382,107 398,110 430,120 430,164 286,164"><title>run035: $C4BFE2, submission 23</title></polygon>
<polygon points="430,120 452,130 482,128 474,139 460,140 466,164 424,164"><title>run035: $C4BFBE, submission 24</title></polygon>
<polygon points="464,111 484,118 496,115 518,138 476,133 478,128 480,126 476,121 458,115 468,116"><title>run035: $C4BFD0, submission 25</title></polygon>
<polygon points="468,103 520,106 516,109 546,107 556,113 550,113 558,118 550,117 498,116 476,109 478,107"><title>run035: $C4BFD6, submission 26</title></polygon>
<polygon points="496,115 550,117 554,121 560,119 564,127 548,129 548,130 558,130 524,139 502,131"><title>run035: $C4BFD0, submission 27</title></polygon>
<polygon points="520,137 542,134 550,133 548,140 568,143 568,164 518,164"><title>run035: $C4BFBE, submission 28</title></polygon>
<polygon points="566,143 590,148 598,145 608,150 606,151 588,148 578,151 564,151"><title>run035: $C4BFC4, submission 29</title></polygon>
<polygon points="566,150 582,150 592,156 590,155 588,156 604,161 604,164 564,164"><title>run035: $C4BFC4, submission 30</title></polygon>
<polygon points="604,161 606,160 606,158 618,164 604,164"><title>run035: $C4BFB2, submission 31</title></polygon>
<polygon points="286,162 430,162 430,215 286,215"><title>run035: $C4BFAC, submission 32</title></polygon>
<polygon points="426,162 466,164 464,188 458,188 456,203 466,214 476,211 480,215 426,215"><title>run035: $C4BFCA, submission 33</title></polygon>
<polygon points="520,162 524,168 516,169 524,170 524,174 518,174 524,178 534,180 568,164"><title>run035: $C4BFCA, submission 34</title></polygon>
<polygon points="532,178 530,181 536,183 534,184 526,183 524,185 534,189 568,193 568,164"><title>run035: $C4BFCA, submission 35</title></polygon>
<polygon points="564,162 618,164 636,190 614,202 604,202 588,196 568,193"><title>run035: $C4BFBE, submission 36</title></polygon>
<polygon points="636,190 654,211 648,214 610,205 608,201"><title>run035: $C4BFB2, submission 37</title></polygon>
<polygon points="646,212 654,211 680,213 682,215 650,215"><title>run035: $C4BFC4, submission 38</title></polygon>
<polygon points="244,36 244,36 252,43 250,47 146,47 146,36"><title>run035: $C4BFD6, submission 39</title></polygon>
<polygon points="270,36 288,47 276,47 260,36"><title>run035: $C4BFB2, submission 40</title></polygon>
<polygon points="568,37 568,47 564,44 566,40 552,37"><title>run035: $C4BFB2, submission 41</title></polygon>
<polygon points="566,37 570,38 568,44"><title>run035: $C4BFA6, submission 42</title></polygon>
<polygon points="566,44 578,47 566,47"><title>run035: $C4BFA6, submission 43</title></polygon>
<polygon points="146,45 250,47 222,82 216,83 218,84 244,86 234,82 246,76 256,75 262,76 290,78 290,106 146,106"><title>run035: $C4BFE2, submission 44</title></polygon>
<polygon points="262,58 260,67 268,65 260,74 268,74 270,70 270,74 280,75 256,75 246,68 254,67"><title>run035: $C4BFD6, submission 45</title></polygon>
<polygon points="276,46 286,47 290,50 290,53"><title>run035: $C4BFAC, submission 46</title></polygon>
<polygon points="708,49 716,56 706,59"><title>run035: $C4BFA6, submission 47</title></polygon>
<polygon points="706,62 726,65 750,63 754,65 748,69 734,72 708,71"><title>run035: $C4BFBE, submission 48</title></polygon>
</g><g shape-rendering="geometricPrecision" font-family="monospace">
<circle cx="194" cy="59.5" r="4" fill="#e53935" stroke="#fff" stroke-width="1"/>
<path d="M 198 56.5 L 245 41.5" stroke="#e53935" stroke-width="1.5"/>
<rect x="246" y="34.5" width="92" height="13" fill="#000" fill-opacity=".78" stroke="#e53935" stroke-width=".5"/>
<text x="249" y="43.5" fill="#fff" font-size="8">GOLDEN GATE</text>
<circle cx="218" cy="94" r="4" fill="#f59e0b" stroke="#fff" stroke-width="1"/>
<path d="M 222 91 L 269 76" stroke="#f59e0b" stroke-width="1.5"/>
<rect x="270" y="69" width="92" height="13" fill="#000" fill-opacity=".78" stroke="#f59e0b" stroke-width=".5"/>
<text x="273" y="78" fill="#fff" font-size="8">MOUNTAIN ?</text>
</g></svg>
